<svg xmlns="http://www.w3.org/2000/svg" xmlns:xlink="http://www.w3.org/1999/xlink" width="512" zoomAndPan="magnify" viewBox="0 0 384 383.999986" height="512" preserveAspectRatio="xMidYMid meet" version="1.0"><defs><g/><clipPath id="94713e32e3"><path d="M 65.191406 147 L 331.441406 147 L 331.441406 233.433594 L 65.191406 233.433594 Z M 65.191406 147 " clip-rule="nonzero"/></clipPath><clipPath id="947ff30294"><path d="M 239.414062 44 L 317.964844 44 L 317.964844 121 L 239.414062 121 Z M 239.414062 44 " clip-rule="nonzero"/></clipPath></defs><g clip-path="url(#94713e32e3)"><path fill="#4ec5cd" d="M 331.203125 169.960938 C 329.53125 168.285156 327.855469 166.613281 326.183594 164.941406 C 325.027344 163.785156 323.871094 162.628906 322.714844 161.472656 C 322.316406 161.074219 321.921875 160.679688 321.523438 160.277344 C 321.425781 160.183594 321.117188 159.75 320.976562 159.734375 C 320.820312 159.71875 320.121094 160.535156 319.992188 160.652344 C 319.515625 161.089844 319.023438 161.511719 318.515625 161.914062 C 317.492188 162.730469 316.414062 163.472656 315.292969 164.140625 C 313.125 165.429688 310.785156 166.429688 308.359375 167.113281 C 303.632812 168.441406 298.589844 168.542969 293.816406 167.410156 C 288.863281 166.234375 284.15625 163.722656 280.511719 160.164062 C 276.34375 156.089844 271.726562 152.714844 266.328125 150.425781 C 255.789062 145.96875 243.636719 145.882812 233.035156 150.1875 C 227.652344 152.371094 222.773438 155.648438 218.664062 159.746094 C 214.125 164.273438 208.164062 167.199219 201.796875 167.996094 C 195.859375 168.742188 189.648438 167.621094 184.398438 164.730469 C 181.933594 163.375 179.683594 161.703125 177.699219 159.710938 C 175.59375 157.605469 173.277344 155.71875 170.789062 154.082031 C 161.175781 147.769531 149.183594 145.566406 137.9375 147.960938 C 132.289062 149.160156 126.902344 151.5 122.171875 154.804688 C 119.765625 156.488281 117.703125 158.480469 115.570312 160.460938 C 113.699219 162.203125 111.597656 163.695312 109.335938 164.886719 C 100.4375 169.558594 89.429688 169.21875 80.851562 163.992188 C 79.761719 163.328125 78.71875 162.589844 77.722656 161.789062 C 77.246094 161.402344 76.777344 161 76.328125 160.585938 C 76.171875 160.441406 75.566406 159.71875 75.410156 159.746094 C 75.257812 159.769531 74.933594 160.222656 74.828125 160.328125 C 74.421875 160.734375 74.011719 161.144531 73.605469 161.550781 C 71.289062 163.867188 68.972656 166.1875 66.652344 168.503906 C 66.160156 168.992188 65.675781 169.476562 65.191406 169.960938 C 73.148438 177.917969 84.0625 182.515625 95.316406 182.660156 C 98.390625 182.699219 101.460938 182.417969 104.472656 181.8125 C 102.375 192.230469 104.238281 203.105469 109.542969 212.300781 C 114.421875 220.769531 122.328125 227.398438 131.425781 230.90625 C 136.375 232.816406 141.703125 233.804688 147.015625 233.804688 C 156.230469 233.785156 165.21875 230.824219 172.671875 225.410156 C 181.140625 219.253906 187.082031 209.996094 189.382812 199.804688 C 190.710938 193.914062 190.742188 187.730469 189.554688 181.8125 C 195.234375 182.957031 201.160156 182.957031 206.839844 181.8125 C 204.75 192.226562 206.597656 203.117188 211.910156 212.300781 C 216.804688 220.765625 224.683594 227.394531 233.785156 230.90625 C 238.742188 232.816406 244.066406 233.804688 249.378906 233.804688 C 258.613281 233.804688 267.675781 230.792969 275.121094 225.34375 C 283.507812 219.203125 289.402344 210.039062 291.714844 199.933594 C 293.070312 194.003906 293.117188 187.773438 291.914062 181.8125 C 302.761719 183.988281 314.265625 181.910156 323.628906 176.011719 C 326.375 174.289062 328.914062 172.25 331.203125 169.960938 Z M 175.902344 191.269531 C 175.554688 203.90625 166.636719 215.167969 154.394531 218.351562 C 142.277344 221.503906 128.882812 216.371094 122.394531 205.550781 C 119.238281 200.289062 117.726562 194.292969 118.199219 188.152344 C 118.644531 182.417969 120.804688 176.871094 124.394531 172.375 C 131.636719 163.300781 143.945312 159.363281 155.140625 162.628906 C 166.171875 165.847656 174.398438 175.636719 175.71875 187.046875 C 175.882812 188.445312 175.945312 189.859375 175.902344 191.269531 Z M 278.273438 191.269531 C 278.066406 197.636719 275.785156 203.464844 271.945312 208.507812 C 268.265625 213.335938 262.609375 216.839844 256.769531 218.351562 C 244.738281 221.46875 231.273438 216.4375 224.828125 205.648438 C 221.617188 200.277344 220.058594 194.203125 220.589844 187.933594 C 221.070312 182.238281 223.253906 176.742188 226.839844 172.289062 C 234.011719 163.375 246.050781 159.472656 257.085938 162.507812 C 268.320312 165.597656 276.757812 175.472656 278.09375 187.046875 C 278.25 188.445312 278.3125 189.859375 278.273438 191.269531 Z M 278.273438 191.269531 " fill-opacity="1" fill-rule="nonzero"/></g><g fill="#000000" fill-opacity="1"><g transform="translate(130.624322, 282.837616)"><g><path d="M 23.03125 -7.65625 C 23.03125 -5.957031 23.078125 -4.519531 23.171875 -3.34375 C 23.265625 -2.164062 23.425781 -1.050781 23.65625 0 L 19.328125 0 C 19.035156 -0.84375 18.394531 -1.882812 17.40625 -3.125 L 6.6875 -16.71875 L 6.6875 -7.65625 C 6.6875 -5.9375 6.75 -4.519531 6.875 -3.40625 C 7.007812 -2.300781 7.25 -1.164062 7.59375 0 L 2.34375 0 C 2.695312 -1.1875 2.9375 -2.332031 3.0625 -3.4375 C 3.195312 -4.550781 3.265625 -5.957031 3.265625 -7.65625 L 3.265625 -20.296875 C 2.765625 -20.929688 2.300781 -21.472656 1.875 -21.921875 C 1.445312 -22.367188 0.9375 -22.851562 0.34375 -23.375 L 0.34375 -23.484375 L 6.140625 -23.484375 C 6.390625 -22.890625 6.691406 -22.304688 7.046875 -21.734375 C 7.410156 -21.160156 7.988281 -20.394531 8.78125 -19.4375 L 19.609375 -5.703125 L 19.609375 -15.828125 C 19.609375 -17.523438 19.539062 -18.925781 19.40625 -20.03125 C 19.269531 -21.144531 19.03125 -22.296875 18.6875 -23.484375 L 23.9375 -23.484375 C 23.59375 -22.316406 23.351562 -21.175781 23.21875 -20.0625 C 23.09375 -18.957031 23.03125 -17.546875 23.03125 -15.828125 Z M 23.03125 -7.65625 "/></g></g></g><g fill="#000000" fill-opacity="1"><g transform="translate(155.766154, 282.837616)"><g><path d="M 13.765625 -10.09375 C 13.765625 -9.34375 13.734375 -8.738281 13.671875 -8.28125 L 4.53125 -8.03125 C 4.601562 -6.132812 5.078125 -4.765625 5.953125 -3.921875 C 6.835938 -3.085938 7.957031 -2.671875 9.3125 -2.671875 C 9.96875 -2.671875 10.617188 -2.789062 11.265625 -3.03125 C 11.921875 -3.269531 12.65625 -3.675781 13.46875 -4.25 L 13.53125 -4.1875 L 12.421875 -0.609375 C 11.265625 -0.0664062 10 0.203125 8.625 0.203125 C 6.238281 0.203125 4.367188 -0.484375 3.015625 -1.859375 C 1.671875 -3.234375 1 -5.269531 1 -7.96875 C 1 -9.78125 1.3125 -11.332031 1.9375 -12.625 C 2.570312 -13.914062 3.4375 -14.894531 4.53125 -15.5625 C 5.625 -16.238281 6.828125 -16.578125 8.140625 -16.578125 C 9.972656 -16.578125 11.367188 -16 12.328125 -14.84375 C 13.285156 -13.695312 13.765625 -12.113281 13.765625 -10.09375 Z M 11.015625 -10.09375 C 11.015625 -11.488281 10.738281 -12.546875 10.1875 -13.265625 C 9.644531 -13.992188 8.847656 -14.359375 7.796875 -14.359375 C 5.898438 -14.359375 4.820312 -12.9375 4.5625 -10.09375 Z M 11.015625 -10.09375 "/></g></g></g><g fill="#000000" fill-opacity="1"><g transform="translate(169.95678, 282.837616)"><g><path d="M 8.859375 -16.578125 C 10.328125 -16.578125 11.640625 -16.25 12.796875 -15.59375 C 13.953125 -14.945312 14.859375 -14 15.515625 -12.75 C 16.179688 -11.507812 16.515625 -10.03125 16.515625 -8.3125 C 16.515625 -6.707031 16.132812 -5.253906 15.375 -3.953125 C 14.625 -2.648438 13.632812 -1.628906 12.40625 -0.890625 C 11.1875 -0.160156 9.910156 0.203125 8.578125 0.203125 C 7.234375 0.203125 5.988281 -0.0820312 4.84375 -0.65625 C 3.695312 -1.226562 2.769531 -2.113281 2.0625 -3.3125 C 1.351562 -4.519531 1 -6.015625 1 -7.796875 C 1 -9.515625 1.375 -11.039062 2.125 -12.375 C 2.882812 -13.71875 3.867188 -14.753906 5.078125 -15.484375 C 6.296875 -16.210938 7.554688 -16.578125 8.859375 -16.578125 Z M 8.484375 -14.25 C 7.773438 -14.25 7.132812 -14.023438 6.5625 -13.578125 C 5.988281 -13.128906 5.535156 -12.46875 5.203125 -11.59375 C 4.867188 -10.726562 4.703125 -9.691406 4.703125 -8.484375 C 4.703125 -7.285156 4.898438 -6.21875 5.296875 -5.28125 C 5.703125 -4.34375 6.242188 -3.59375 6.921875 -3.03125 C 7.597656 -2.476562 8.347656 -2.15625 9.171875 -2.0625 C 10.222656 -2.21875 11.09375 -2.828125 11.78125 -3.890625 C 12.46875 -4.960938 12.8125 -6.34375 12.8125 -8.03125 C 12.8125 -9.21875 12.613281 -10.28125 12.21875 -11.21875 C 11.832031 -12.164062 11.304688 -12.90625 10.640625 -13.4375 C 9.984375 -13.976562 9.265625 -14.25 8.484375 -14.25 Z M 8.484375 -14.25 "/></g></g></g><g fill="#000000" fill-opacity="1"><g transform="translate(186.899542, 282.837616)"><g><path d="M 23.03125 -7.65625 C 23.03125 -5.957031 23.078125 -4.519531 23.171875 -3.34375 C 23.265625 -2.164062 23.425781 -1.050781 23.65625 0 L 19.328125 0 C 19.035156 -0.84375 18.394531 -1.882812 17.40625 -3.125 L 6.6875 -16.71875 L 6.6875 -7.65625 C 6.6875 -5.9375 6.75 -4.519531 6.875 -3.40625 C 7.007812 -2.300781 7.25 -1.164062 7.59375 0 L 2.34375 0 C 2.695312 -1.1875 2.9375 -2.332031 3.0625 -3.4375 C 3.195312 -4.550781 3.265625 -5.957031 3.265625 -7.65625 L 3.265625 -20.296875 C 2.765625 -20.929688 2.300781 -21.472656 1.875 -21.921875 C 1.445312 -22.367188 0.9375 -22.851562 0.34375 -23.375 L 0.34375 -23.484375 L 6.140625 -23.484375 C 6.390625 -22.890625 6.691406 -22.304688 7.046875 -21.734375 C 7.410156 -21.160156 7.988281 -20.394531 8.78125 -19.4375 L 19.609375 -5.703125 L 19.609375 -15.828125 C 19.609375 -17.523438 19.539062 -18.925781 19.40625 -20.03125 C 19.269531 -21.144531 19.03125 -22.296875 18.6875 -23.484375 L 23.9375 -23.484375 C 23.59375 -22.316406 23.351562 -21.175781 23.21875 -20.0625 C 23.09375 -18.957031 23.03125 -17.546875 23.03125 -15.828125 Z M 23.03125 -7.65625 "/></g></g></g><g fill="#000000" fill-opacity="1"><g transform="translate(212.041374, 282.837616)"><g><path d="M 13.765625 -10.09375 C 13.765625 -9.34375 13.734375 -8.738281 13.671875 -8.28125 L 4.53125 -8.03125 C 4.601562 -6.132812 5.078125 -4.765625 5.953125 -3.921875 C 6.835938 -3.085938 7.957031 -2.671875 9.3125 -2.671875 C 9.96875 -2.671875 10.617188 -2.789062 11.265625 -3.03125 C 11.921875 -3.269531 12.65625 -3.675781 13.46875 -4.25 L 13.53125 -4.1875 L 12.421875 -0.609375 C 11.265625 -0.0664062 10 0.203125 8.625 0.203125 C 6.238281 0.203125 4.367188 -0.484375 3.015625 -1.859375 C 1.671875 -3.234375 1 -5.269531 1 -7.96875 C 1 -9.78125 1.3125 -11.332031 1.9375 -12.625 C 2.570312 -13.914062 3.4375 -14.894531 4.53125 -15.5625 C 5.625 -16.238281 6.828125 -16.578125 8.140625 -16.578125 C 9.972656 -16.578125 11.367188 -16 12.328125 -14.84375 C 13.285156 -13.695312 13.765625 -12.113281 13.765625 -10.09375 Z M 11.015625 -10.09375 C 11.015625 -11.488281 10.738281 -12.546875 10.1875 -13.265625 C 9.644531 -13.992188 8.847656 -14.359375 7.796875 -14.359375 C 5.898438 -14.359375 4.820312 -12.9375 4.5625 -10.09375 Z M 11.015625 -10.09375 "/></g></g></g><g fill="#000000" fill-opacity="1"><g transform="translate(226.232, 282.837616)"><g><path d="M 1.6875 0 C 1.976562 -0.75 2.179688 -1.460938 2.296875 -2.140625 C 2.410156 -2.816406 2.46875 -3.582031 2.46875 -4.4375 L 2.46875 -11.90625 C 2.46875 -12.757812 2.414062 -13.519531 2.3125 -14.1875 C 2.21875 -14.863281 2.050781 -15.570312 1.8125 -16.3125 L 5.90625 -16.3125 C 5.789062 -15.664062 5.734375 -14.957031 5.734375 -14.1875 L 5.734375 -12.5 C 6.578125 -13.988281 7.359375 -15.03125 8.078125 -15.625 C 8.804688 -16.21875 9.617188 -16.515625 10.515625 -16.515625 C 10.992188 -16.515625 11.398438 -16.445312 11.734375 -16.3125 L 11.296875 -12.328125 C 10.421875 -12.859375 9.65625 -13.125 9 -13.125 C 7.800781 -13.125 6.710938 -12.5625 5.734375 -11.4375 L 5.734375 -4.4375 C 5.734375 -3.5625 5.789062 -2.789062 5.90625 -2.125 C 6.019531 -1.457031 6.226562 -0.75 6.53125 0 Z M 1.6875 0 "/></g></g></g><g fill="#000000" fill-opacity="1"><g transform="translate(237.584485, 282.837616)"><g><path d="M 7.03125 0.203125 C 5.875 0.203125 4.835938 -0.113281 3.921875 -0.75 C 3.003906 -1.394531 2.285156 -2.269531 1.765625 -3.375 C 1.253906 -4.488281 1 -5.707031 1 -7.03125 C 1 -8.570312 1.378906 -10.078125 2.140625 -11.546875 C 2.910156 -13.023438 3.945312 -14.222656 5.25 -15.140625 C 6.550781 -16.054688 7.945312 -16.515625 9.4375 -16.515625 C 10.175781 -16.515625 10.851562 -16.390625 11.46875 -16.140625 L 11.46875 -17.40625 C 11.46875 -18.6875 11.40625 -19.710938 11.28125 -20.484375 C 11.15625 -21.253906 10.957031 -21.976562 10.6875 -22.65625 L 15.375 -23.5625 C 15.175781 -22.707031 15.019531 -21.59375 14.90625 -20.21875 C 14.789062 -18.851562 14.734375 -17.414062 14.734375 -15.90625 L 14.734375 -4.4375 C 14.734375 -3.582031 14.789062 -2.816406 14.90625 -2.140625 C 15.019531 -1.460938 15.222656 -0.75 15.515625 0 L 11.46875 0 L 11.46875 -2.296875 C 10.6875 -1.398438 9.976562 -0.757812 9.34375 -0.375 C 8.71875 0.0078125 7.945312 0.203125 7.03125 0.203125 Z M 9.546875 -2.546875 C 10.234375 -2.546875 10.875 -2.757812 11.46875 -3.1875 L 11.46875 -12.703125 C 10.507812 -13.617188 9.34375 -14.078125 7.96875 -14.078125 C 7.03125 -14.078125 6.265625 -13.816406 5.671875 -13.296875 C 4.929688 -11.898438 4.5625 -10.25 4.5625 -8.34375 C 4.5625 -6.53125 5.019531 -5.109375 5.9375 -4.078125 C 6.851562 -3.054688 8.054688 -2.546875 9.546875 -2.546875 Z M 9.546875 -2.546875 "/></g></g></g><g fill="#000000" fill-opacity="1"><g transform="translate(254.154562, 282.837616)"><g><path d="M 5.25 0.203125 C 4.476562 0.203125 3.78125 0.148438 3.15625 0.046875 C 2.539062 -0.046875 1.84375 -0.195312 1.0625 -0.40625 L 1.265625 -4.9375 L 1.34375 -4.9375 C 2 -3.84375 2.597656 -3.078125 3.140625 -2.640625 C 3.679688 -2.210938 4.335938 -2 5.109375 -2 C 5.816406 -2 6.351562 -2.171875 6.71875 -2.515625 C 7.09375 -2.867188 7.28125 -3.367188 7.28125 -4.015625 C 7.28125 -4.609375 7.101562 -5.117188 6.75 -5.546875 C 6.394531 -5.972656 5.691406 -6.523438 4.640625 -7.203125 C 3.492188 -7.941406 2.695312 -8.675781 2.25 -9.40625 C 1.800781 -10.132812 1.578125 -10.972656 1.578125 -11.921875 C 1.578125 -12.804688 1.800781 -13.601562 2.25 -14.3125 C 2.695312 -15.019531 3.328125 -15.570312 4.140625 -15.96875 C 4.953125 -16.375 5.882812 -16.578125 6.9375 -16.578125 C 8.0625 -16.578125 9.125 -16.410156 10.125 -16.078125 L 10.125 -12.984375 L 10.03125 -12.984375 C 9.425781 -13.503906 8.882812 -13.867188 8.40625 -14.078125 C 7.925781 -14.285156 7.425781 -14.390625 6.90625 -14.390625 C 6.257812 -14.390625 5.757812 -14.234375 5.40625 -13.921875 C 5.050781 -13.609375 4.875 -13.171875 4.875 -12.609375 C 4.875 -12.023438 5.0625 -11.503906 5.4375 -11.046875 C 5.8125 -10.597656 6.460938 -10.085938 7.390625 -9.515625 C 8.554688 -8.804688 9.390625 -8.082031 9.890625 -7.34375 C 10.390625 -6.613281 10.640625 -5.742188 10.640625 -4.734375 C 10.640625 -3.160156 10.128906 -1.941406 9.109375 -1.078125 C 8.097656 -0.222656 6.8125 0.203125 5.25 0.203125 Z M 5.25 0.203125 "/></g></g></g><g fill="#000000" fill-opacity="1"><g transform="translate(93.930878, 302.114378)"><g><path d="M 3.578125 -7.9375 C 4.460938 -7.9375 5.140625 -7.710938 5.609375 -7.265625 C 6.078125 -6.828125 6.359375 -6.234375 6.453125 -5.484375 L 4.859375 -5.484375 C 4.816406 -5.890625 4.679688 -6.203125 4.453125 -6.421875 C 4.234375 -6.648438 3.925781 -6.765625 3.53125 -6.765625 C 3.207031 -6.765625 2.941406 -6.6875 2.734375 -6.53125 C 2.535156 -6.375 2.4375 -6.144531 2.4375 -5.84375 C 2.4375 -5.507812 2.554688 -5.25 2.796875 -5.0625 C 3.046875 -4.875 3.476562 -4.710938 4.09375 -4.578125 C 4.9375 -4.378906 5.554688 -4.082031 5.953125 -3.6875 C 6.359375 -3.289062 6.5625 -2.773438 6.5625 -2.140625 C 6.5625 -1.429688 6.285156 -0.867188 5.734375 -0.453125 C 5.179688 -0.046875 4.5 0.15625 3.6875 0.15625 C 2.75 0.15625 1.992188 -0.0507812 1.421875 -0.46875 C 0.859375 -0.882812 0.539062 -1.492188 0.46875 -2.296875 L 2.0625 -2.296875 C 2.144531 -1.878906 2.332031 -1.554688 2.625 -1.328125 C 2.914062 -1.109375 3.265625 -1 3.671875 -1 C 4.035156 -1 4.335938 -1.085938 4.578125 -1.265625 C 4.828125 -1.453125 4.953125 -1.691406 4.953125 -1.984375 C 4.953125 -2.316406 4.832031 -2.582031 4.59375 -2.78125 C 4.351562 -2.988281 3.953125 -3.160156 3.390625 -3.296875 C 2.515625 -3.503906 1.863281 -3.78125 1.4375 -4.125 C 1.007812 -4.476562 0.796875 -4.988281 0.796875 -5.65625 C 0.796875 -6.34375 1.066406 -6.894531 1.609375 -7.3125 C 2.148438 -7.726562 2.804688 -7.9375 3.578125 -7.9375 Z M 3.578125 -7.9375 "/></g></g></g><g fill="#000000" fill-opacity="1"><g transform="translate(102.126231, 302.114378)"><g><path d="M 9.390625 -7.765625 L 9.390625 0 L 7.828125 0 L 7.828125 -3.59375 C 7.828125 -4.820312 7.835938 -5.707031 7.859375 -6.25 C 7.640625 -5.351562 7.394531 -4.472656 7.125 -3.609375 L 6.03125 0 L 4.34375 0 L 3.234375 -3.609375 C 2.953125 -4.566406 2.71875 -5.441406 2.53125 -6.234375 C 2.550781 -5.703125 2.5625 -4.820312 2.5625 -3.59375 L 2.5625 0 L 1 0 L 1 -7.765625 L 3.453125 -7.765625 L 5.21875 -1.4375 L 6.96875 -7.765625 Z M 9.390625 -7.765625 "/></g></g></g><g fill="#000000" fill-opacity="1"><g transform="translate(113.574579, 302.114378)"><g><path d="M 5.21875 -2.34375 L 2.609375 -2.34375 L 1.828125 0 L 0.171875 0 L 2.96875 -7.765625 L 4.921875 -7.765625 L 7.671875 0 L 5.984375 0 Z M 3.921875 -6.4375 L 3 -3.578125 L 4.828125 -3.578125 Z M 3.921875 -6.4375 "/></g></g></g><g fill="#000000" fill-opacity="1"><g transform="translate(122.535343, 302.114378)"><g><path d="M 6.640625 -1.953125 C 6.734375 -1.035156 6.921875 -0.382812 7.203125 0 L 5.5 0 C 5.3125 -0.519531 5.179688 -1.097656 5.109375 -1.734375 C 5.003906 -2.609375 4.65625 -3.070312 4.0625 -3.125 C 3.925781 -3.125 3.722656 -3.125 3.453125 -3.125 L 2.5625 -3.125 L 2.5625 0 L 1 0 L 1 -7.765625 L 3.84375 -7.765625 C 4.269531 -7.765625 4.644531 -7.75 4.96875 -7.71875 C 5.582031 -7.644531 6.070312 -7.441406 6.4375 -7.109375 C 6.8125 -6.773438 7 -6.289062 7 -5.65625 C 7 -5.164062 6.863281 -4.757812 6.59375 -4.4375 C 6.332031 -4.125 5.960938 -3.898438 5.484375 -3.765625 C 6.148438 -3.503906 6.535156 -2.898438 6.640625 -1.953125 Z M 2.5625 -4.296875 L 3.625 -4.296875 C 3.9375 -4.296875 4.148438 -4.296875 4.265625 -4.296875 C 5.003906 -4.367188 5.375 -4.742188 5.375 -5.421875 C 5.375 -5.773438 5.285156 -6.035156 5.109375 -6.203125 C 4.929688 -6.367188 4.675781 -6.472656 4.34375 -6.515625 C 4.164062 -6.546875 3.945312 -6.5625 3.6875 -6.5625 L 2.5625 -6.5625 Z M 2.5625 -4.296875 "/></g></g></g><g fill="#000000" fill-opacity="1"><g transform="translate(131.248464, 302.114378)"><g><path d="M 7.09375 -6.5625 L 4.453125 -6.5625 L 4.453125 0 L 2.890625 0 L 2.890625 -6.5625 L 0.265625 -6.5625 L 0.265625 -7.765625 L 7.09375 -7.765625 Z M 7.09375 -6.5625 "/></g></g></g><g fill="#000000" fill-opacity="1"><g transform="translate(139.612648, 302.114378)"><g/></g></g><g fill="#000000" fill-opacity="1"><g transform="translate(143.147995, 302.114378)"><g><path d="M 7.734375 -7.765625 L 7.734375 0 L 6.203125 0 L 6.203125 -3.1875 L 2.5625 -3.1875 L 2.5625 0 L 1 0 L 1 -7.765625 L 2.5625 -7.765625 L 2.5625 -4.421875 L 6.203125 -4.421875 L 6.203125 -7.765625 Z M 7.734375 -7.765625 "/></g></g></g><g fill="#000000" fill-opacity="1"><g transform="translate(152.964217, 302.114378)"><g><path d="M 6.609375 -1.234375 L 6.609375 0 L 1 0 L 1 -7.765625 L 6.5 -7.765625 L 6.5 -6.5625 L 2.5625 -6.5625 L 2.5625 -4.5 L 6.21875 -4.5 L 6.21875 -3.28125 L 2.5625 -3.28125 L 2.5625 -1.234375 Z M 6.609375 -1.234375 "/></g></g></g><g fill="#000000" fill-opacity="1"><g transform="translate(161.249619, 302.114378)"><g><path d="M 5.21875 -2.34375 L 2.609375 -2.34375 L 1.828125 0 L 0.171875 0 L 2.96875 -7.765625 L 4.921875 -7.765625 L 7.671875 0 L 5.984375 0 Z M 3.921875 -6.4375 L 3 -3.578125 L 4.828125 -3.578125 Z M 3.921875 -6.4375 "/></g></g></g><g fill="#000000" fill-opacity="1"><g transform="translate(170.210384, 302.114378)"><g><path d="M 6.640625 -1.953125 C 6.734375 -1.035156 6.921875 -0.382812 7.203125 0 L 5.5 0 C 5.3125 -0.519531 5.179688 -1.097656 5.109375 -1.734375 C 5.003906 -2.609375 4.65625 -3.070312 4.0625 -3.125 C 3.925781 -3.125 3.722656 -3.125 3.453125 -3.125 L 2.5625 -3.125 L 2.5625 0 L 1 0 L 1 -7.765625 L 3.84375 -7.765625 C 4.269531 -7.765625 4.644531 -7.75 4.96875 -7.71875 C 5.582031 -7.644531 6.070312 -7.441406 6.4375 -7.109375 C 6.8125 -6.773438 7 -6.289062 7 -5.65625 C 7 -5.164062 6.863281 -4.757812 6.59375 -4.4375 C 6.332031 -4.125 5.960938 -3.898438 5.484375 -3.765625 C 6.148438 -3.503906 6.535156 -2.898438 6.640625 -1.953125 Z M 2.5625 -4.296875 L 3.625 -4.296875 C 3.9375 -4.296875 4.148438 -4.296875 4.265625 -4.296875 C 5.003906 -4.367188 5.375 -4.742188 5.375 -5.421875 C 5.375 -5.773438 5.285156 -6.035156 5.109375 -6.203125 C 4.929688 -6.367188 4.675781 -6.472656 4.34375 -6.515625 C 4.164062 -6.546875 3.945312 -6.5625 3.6875 -6.5625 L 2.5625 -6.5625 Z M 2.5625 -4.296875 "/></g></g></g><g fill="#000000" fill-opacity="1"><g transform="translate(178.923508, 302.114378)"><g><path d="M 7.09375 -6.5625 L 4.453125 -6.5625 L 4.453125 0 L 2.890625 0 L 2.890625 -6.5625 L 0.265625 -6.5625 L 0.265625 -7.765625 L 7.09375 -7.765625 Z M 7.09375 -6.5625 "/></g></g></g><g fill="#000000" fill-opacity="1"><g transform="translate(187.287695, 302.114378)"><g><path d="M 3.578125 -7.9375 C 4.460938 -7.9375 5.140625 -7.710938 5.609375 -7.265625 C 6.078125 -6.828125 6.359375 -6.234375 6.453125 -5.484375 L 4.859375 -5.484375 C 4.816406 -5.890625 4.679688 -6.203125 4.453125 -6.421875 C 4.234375 -6.648438 3.925781 -6.765625 3.53125 -6.765625 C 3.207031 -6.765625 2.941406 -6.6875 2.734375 -6.53125 C 2.535156 -6.375 2.4375 -6.144531 2.4375 -5.84375 C 2.4375 -5.507812 2.554688 -5.25 2.796875 -5.0625 C 3.046875 -4.875 3.476562 -4.710938 4.09375 -4.578125 C 4.9375 -4.378906 5.554688 -4.082031 5.953125 -3.6875 C 6.359375 -3.289062 6.5625 -2.773438 6.5625 -2.140625 C 6.5625 -1.429688 6.285156 -0.867188 5.734375 -0.453125 C 5.179688 -0.046875 4.5 0.15625 3.6875 0.15625 C 2.75 0.15625 1.992188 -0.0507812 1.421875 -0.46875 C 0.859375 -0.882812 0.539062 -1.492188 0.46875 -2.296875 L 2.0625 -2.296875 C 2.144531 -1.878906 2.332031 -1.554688 2.625 -1.328125 C 2.914062 -1.109375 3.265625 -1 3.671875 -1 C 4.035156 -1 4.335938 -1.085938 4.578125 -1.265625 C 4.828125 -1.453125 4.953125 -1.691406 4.953125 -1.984375 C 4.953125 -2.316406 4.832031 -2.582031 4.59375 -2.78125 C 4.351562 -2.988281 3.953125 -3.160156 3.390625 -3.296875 C 2.515625 -3.503906 1.863281 -3.78125 1.4375 -4.125 C 1.007812 -4.476562 0.796875 -4.988281 0.796875 -5.65625 C 0.796875 -6.34375 1.066406 -6.894531 1.609375 -7.3125 C 2.148438 -7.726562 2.804688 -7.9375 3.578125 -7.9375 Z M 3.578125 -7.9375 "/></g></g></g><g fill="#000000" fill-opacity="1"><g transform="translate(195.48305, 302.114378)"><g><path d="M 2.078125 -1.46875 L 0.953125 1.375 L -0.3125 1.375 L 0.578125 -1.578125 L 2.078125 -1.578125 Z M 2.078125 -1.46875 "/></g></g></g><g fill="#000000" fill-opacity="1"><g transform="translate(199.592452, 302.114378)"><g/></g></g><g fill="#000000" fill-opacity="1"><g transform="translate(203.127799, 302.114378)"><g><path d="M 3.578125 -7.9375 C 4.460938 -7.9375 5.140625 -7.710938 5.609375 -7.265625 C 6.078125 -6.828125 6.359375 -6.234375 6.453125 -5.484375 L 4.859375 -5.484375 C 4.816406 -5.890625 4.679688 -6.203125 4.453125 -6.421875 C 4.234375 -6.648438 3.925781 -6.765625 3.53125 -6.765625 C 3.207031 -6.765625 2.941406 -6.6875 2.734375 -6.53125 C 2.535156 -6.375 2.4375 -6.144531 2.4375 -5.84375 C 2.4375 -5.507812 2.554688 -5.25 2.796875 -5.0625 C 3.046875 -4.875 3.476562 -4.710938 4.09375 -4.578125 C 4.9375 -4.378906 5.554688 -4.082031 5.953125 -3.6875 C 6.359375 -3.289062 6.5625 -2.773438 6.5625 -2.140625 C 6.5625 -1.429688 6.285156 -0.867188 5.734375 -0.453125 C 5.179688 -0.046875 4.5 0.15625 3.6875 0.15625 C 2.75 0.15625 1.992188 -0.0507812 1.421875 -0.46875 C 0.859375 -0.882812 0.539062 -1.492188 0.46875 -2.296875 L 2.0625 -2.296875 C 2.144531 -1.878906 2.332031 -1.554688 2.625 -1.328125 C 2.914062 -1.109375 3.265625 -1 3.671875 -1 C 4.035156 -1 4.335938 -1.085938 4.578125 -1.265625 C 4.828125 -1.453125 4.953125 -1.691406 4.953125 -1.984375 C 4.953125 -2.316406 4.832031 -2.582031 4.59375 -2.78125 C 4.351562 -2.988281 3.953125 -3.160156 3.390625 -3.296875 C 2.515625 -3.503906 1.863281 -3.78125 1.4375 -4.125 C 1.007812 -4.476562 0.796875 -4.988281 0.796875 -5.65625 C 0.796875 -6.34375 1.066406 -6.894531 1.609375 -7.3125 C 2.148438 -7.726562 2.804688 -7.9375 3.578125 -7.9375 Z M 3.578125 -7.9375 "/></g></g></g><g fill="#000000" fill-opacity="1"><g transform="translate(211.323154, 302.114378)"><g><path d="M 7.734375 -7.765625 L 7.734375 0 L 6.203125 0 L 6.203125 -3.1875 L 2.5625 -3.1875 L 2.5625 0 L 1 0 L 1 -7.765625 L 2.5625 -7.765625 L 2.5625 -4.421875 L 6.203125 -4.421875 L 6.203125 -7.765625 Z M 7.734375 -7.765625 "/></g></g></g><g fill="#000000" fill-opacity="1"><g transform="translate(221.139376, 302.114378)"><g><path d="M 5.21875 -2.34375 L 2.609375 -2.34375 L 1.828125 0 L 0.171875 0 L 2.96875 -7.765625 L 4.921875 -7.765625 L 7.671875 0 L 5.984375 0 Z M 3.921875 -6.4375 L 3 -3.578125 L 4.828125 -3.578125 Z M 3.921875 -6.4375 "/></g></g></g><g fill="#000000" fill-opacity="1"><g transform="translate(230.100141, 302.114378)"><g><path d="M 6.640625 -1.953125 C 6.734375 -1.035156 6.921875 -0.382812 7.203125 0 L 5.5 0 C 5.3125 -0.519531 5.179688 -1.097656 5.109375 -1.734375 C 5.003906 -2.609375 4.65625 -3.070312 4.0625 -3.125 C 3.925781 -3.125 3.722656 -3.125 3.453125 -3.125 L 2.5625 -3.125 L 2.5625 0 L 1 0 L 1 -7.765625 L 3.84375 -7.765625 C 4.269531 -7.765625 4.644531 -7.75 4.96875 -7.71875 C 5.582031 -7.644531 6.070312 -7.441406 6.4375 -7.109375 C 6.8125 -6.773438 7 -6.289062 7 -5.65625 C 7 -5.164062 6.863281 -4.757812 6.59375 -4.4375 C 6.332031 -4.125 5.960938 -3.898438 5.484375 -3.765625 C 6.148438 -3.503906 6.535156 -2.898438 6.640625 -1.953125 Z M 2.5625 -4.296875 L 3.625 -4.296875 C 3.9375 -4.296875 4.148438 -4.296875 4.265625 -4.296875 C 5.003906 -4.367188 5.375 -4.742188 5.375 -5.421875 C 5.375 -5.773438 5.285156 -6.035156 5.109375 -6.203125 C 4.929688 -6.367188 4.675781 -6.472656 4.34375 -6.515625 C 4.164062 -6.546875 3.945312 -6.5625 3.6875 -6.5625 L 2.5625 -6.5625 Z M 2.5625 -4.296875 "/></g></g></g><g fill="#000000" fill-opacity="1"><g transform="translate(238.813265, 302.114378)"><g><path d="M 4.828125 -7.71875 C 5.441406 -7.644531 5.941406 -7.40625 6.328125 -7 C 6.722656 -6.59375 6.921875 -6.039062 6.921875 -5.34375 C 6.921875 -4.664062 6.71875 -4.117188 6.3125 -3.703125 C 5.914062 -3.296875 5.421875 -3.054688 4.828125 -2.984375 C 4.503906 -2.941406 4.125 -2.921875 3.6875 -2.921875 L 2.5625 -2.921875 L 2.5625 0 L 1 0 L 1 -7.765625 L 3.6875 -7.765625 C 4.125 -7.765625 4.503906 -7.75 4.828125 -7.71875 Z M 4.359375 -4.1875 C 4.972656 -4.28125 5.28125 -4.664062 5.28125 -5.34375 C 5.28125 -6.03125 4.972656 -6.421875 4.359375 -6.515625 C 4.179688 -6.535156 3.953125 -6.546875 3.671875 -6.546875 L 2.5625 -6.546875 L 2.5625 -4.15625 L 3.671875 -4.15625 C 3.953125 -4.15625 4.179688 -4.164062 4.359375 -4.1875 Z M 4.359375 -4.1875 "/></g></g></g><g fill="#000000" fill-opacity="1"><g transform="translate(247.177452, 302.114378)"><g/></g></g><g fill="#000000" fill-opacity="1"><g transform="translate(250.712799, 302.114378)"><g><path d="M 9.390625 -7.765625 L 9.390625 0 L 7.828125 0 L 7.828125 -3.59375 C 7.828125 -4.820312 7.835938 -5.707031 7.859375 -6.25 C 7.640625 -5.351562 7.394531 -4.472656 7.125 -3.609375 L 6.03125 0 L 4.34375 0 L 3.234375 -3.609375 C 2.953125 -4.566406 2.71875 -5.441406 2.53125 -6.234375 C 2.550781 -5.703125 2.5625 -4.820312 2.5625 -3.59375 L 2.5625 0 L 1 0 L 1 -7.765625 L 3.453125 -7.765625 L 5.21875 -1.4375 L 6.96875 -7.765625 Z M 9.390625 -7.765625 "/></g></g></g><g fill="#000000" fill-opacity="1"><g transform="translate(262.16115, 302.114378)"><g><path d="M 2.5625 0 L 1 0 L 1 -7.765625 L 2.5625 -7.765625 Z M 2.5625 0 "/></g></g></g><g fill="#000000" fill-opacity="1"><g transform="translate(266.799595, 302.114378)"><g><path d="M 7.828125 0 L 5.703125 0 L 2.5 -5.90625 C 2.539062 -5.195312 2.5625 -4.398438 2.5625 -3.515625 L 2.5625 0 L 1 0 L 1 -7.765625 L 3.0625 -7.765625 L 6.328125 -1.75 C 6.296875 -2.457031 6.28125 -3.273438 6.28125 -4.203125 L 6.28125 -7.765625 L 7.8125 -7.765625 Z M 7.828125 0 "/></g></g></g><g fill="#000000" fill-opacity="1"><g transform="translate(276.705864, 302.114378)"><g><path d="M 4.671875 -7.734375 C 5.628906 -7.617188 6.398438 -7.25 6.984375 -6.625 C 7.578125 -6 7.875 -5.117188 7.875 -3.984375 C 7.875 -2.847656 7.570312 -1.9375 6.96875 -1.25 C 6.375 -0.5625 5.601562 -0.160156 4.65625 -0.046875 C 4.394531 -0.015625 4.0625 0 3.65625 0 L 1 0 L 1 -7.765625 L 3.6875 -7.765625 C 4.082031 -7.765625 4.410156 -7.753906 4.671875 -7.734375 Z M 4.296875 -1.265625 C 4.890625 -1.335938 5.359375 -1.609375 5.703125 -2.078125 C 6.054688 -2.554688 6.234375 -3.1875 6.234375 -3.96875 C 6.234375 -4.71875 6.0625 -5.3125 5.71875 -5.75 C 5.382812 -6.1875 4.925781 -6.441406 4.34375 -6.515625 C 4.101562 -6.546875 3.820312 -6.5625 3.5 -6.5625 L 2.5625 -6.5625 L 2.5625 -1.234375 L 3.484375 -1.234375 C 3.867188 -1.234375 4.140625 -1.242188 4.296875 -1.265625 Z M 4.296875 -1.265625 "/></g></g></g><g fill="#000000" fill-opacity="1"><g transform="translate(286.285707, 302.114378)"><g><path d="M 3.578125 -7.9375 C 4.460938 -7.9375 5.140625 -7.710938 5.609375 -7.265625 C 6.078125 -6.828125 6.359375 -6.234375 6.453125 -5.484375 L 4.859375 -5.484375 C 4.816406 -5.890625 4.679688 -6.203125 4.453125 -6.421875 C 4.234375 -6.648438 3.925781 -6.765625 3.53125 -6.765625 C 3.207031 -6.765625 2.941406 -6.6875 2.734375 -6.53125 C 2.535156 -6.375 2.4375 -6.144531 2.4375 -5.84375 C 2.4375 -5.507812 2.554688 -5.25 2.796875 -5.0625 C 3.046875 -4.875 3.476562 -4.710938 4.09375 -4.578125 C 4.9375 -4.378906 5.554688 -4.082031 5.953125 -3.6875 C 6.359375 -3.289062 6.5625 -2.773438 6.5625 -2.140625 C 6.5625 -1.429688 6.285156 -0.867188 5.734375 -0.453125 C 5.179688 -0.046875 4.5 0.15625 3.6875 0.15625 C 2.75 0.15625 1.992188 -0.0507812 1.421875 -0.46875 C 0.859375 -0.882812 0.539062 -1.492188 0.46875 -2.296875 L 2.0625 -2.296875 C 2.144531 -1.878906 2.332031 -1.554688 2.625 -1.328125 C 2.914062 -1.109375 3.265625 -1 3.671875 -1 C 4.035156 -1 4.335938 -1.085938 4.578125 -1.265625 C 4.828125 -1.453125 4.953125 -1.691406 4.953125 -1.984375 C 4.953125 -2.316406 4.832031 -2.582031 4.59375 -2.78125 C 4.351562 -2.988281 3.953125 -3.160156 3.390625 -3.296875 C 2.515625 -3.503906 1.863281 -3.78125 1.4375 -4.125 C 1.007812 -4.476562 0.796875 -4.988281 0.796875 -5.65625 C 0.796875 -6.34375 1.066406 -6.894531 1.609375 -7.3125 C 2.148438 -7.726562 2.804688 -7.9375 3.578125 -7.9375 Z M 3.578125 -7.9375 "/></g></g></g><g clip-path="url(#947ff30294)"><path fill="#4ec5cd" d="M 256.320312 96.988281 C 255.140625 95.628906 253.996094 94.246094 252.929688 92.8125 C 251.867188 91.375 250.851562 89.910156 249.933594 88.398438 C 249.007812 86.886719 248.160156 85.339844 247.417969 83.746094 C 246.664062 82.164062 246.007812 80.539062 245.460938 78.886719 C 244.347656 75.589844 243.675781 72.179688 243.402344 68.746094 C 243.335938 67.890625 243.292969 67.03125 243.277344 66.171875 L 243.273438 65.847656 L 243.269531 65.535156 C 243.273438 65.347656 243.277344 65.140625 243.285156 64.941406 C 243.300781 64.542969 243.328125 64.144531 243.375 63.75 C 243.550781 62.175781 243.96875 60.652344 244.617188 59.242188 C 245.265625 57.835938 246.125 56.539062 247.171875 55.414062 C 248.214844 54.289062 249.4375 53.332031 250.773438 52.574219 C 253.433594 51.039062 256.546875 50.328125 259.613281 50.460938 C 262.6875 50.570312 265.710938 51.527344 268.410156 53.113281 C 271.125 54.683594 273.519531 56.875 275.542969 59.421875 L 277.9375 62.433594 L 280.542969 59.484375 C 282.273438 57.527344 284.207031 55.796875 286.320312 54.429688 C 287.378906 53.746094 288.480469 53.15625 289.609375 52.667969 C 290.738281 52.175781 291.902344 51.789062 293.082031 51.519531 C 295.441406 50.980469 297.875 50.929688 300.179688 51.40625 C 302.484375 51.863281 304.664062 52.847656 306.464844 54.285156 C 308.265625 55.714844 309.675781 57.585938 310.546875 59.703125 C 310.980469 60.761719 311.28125 61.878906 311.4375 63.035156 C 311.515625 63.613281 311.558594 64.195312 311.570312 64.789062 C 311.574219 65.082031 311.570312 65.378906 311.558594 65.675781 L 311.546875 65.898438 L 311.535156 66.167969 L 311.503906 66.632812 C 311.320312 69.199219 310.792969 71.78125 309.980469 74.296875 C 309.164062 76.8125 308.097656 79.277344 306.816406 81.652344 C 305.53125 84.027344 304.03125 86.304688 302.394531 88.5 C 300.75 90.695312 298.933594 92.773438 297.015625 94.773438 C 295.097656 96.769531 293.046875 98.652344 290.914062 100.457031 C 288.78125 102.261719 286.539062 103.953125 284.238281 105.570312 C 279.632812 108.796875 274.726562 111.652344 269.640625 114.203125 C 267.09375 115.480469 264.503906 116.671875 261.875 117.800781 C 260.558594 118.359375 259.238281 118.917969 257.90625 119.449219 C 256.570312 119.980469 255.230469 120.488281 253.882812 121 C 255.296875 120.722656 256.703125 120.40625 258.101562 120.066406 C 259.503906 119.730469 260.902344 119.375 262.289062 118.976562 C 265.070312 118.195312 267.824219 117.296875 270.542969 116.292969 C 271.902344 115.785156 273.253906 115.257812 274.597656 114.703125 C 275.9375 114.140625 277.269531 113.550781 278.589844 112.933594 C 281.234375 111.710938 283.816406 110.34375 286.351562 108.875 C 288.882812 107.402344 291.34375 105.789062 293.734375 104.066406 C 296.117188 102.335938 298.410156 100.457031 300.601562 98.453125 C 302.796875 96.453125 304.855469 94.285156 306.78125 91.988281 C 308.710938 89.6875 310.472656 87.230469 312.023438 84.617188 C 313.574219 82.003906 314.925781 79.238281 315.953125 76.320312 C 316.988281 73.40625 317.71875 70.34375 318.035156 67.199219 L 318.085938 66.585938 L 318.125 66.003906 C 318.152344 65.585938 318.160156 65.167969 318.164062 64.746094 C 318.164062 63.902344 318.117188 63.054688 318.015625 62.207031 C 317.816406 60.515625 317.40625 58.832031 316.777344 57.226562 C 316.152344 55.617188 315.320312 54.085938 314.292969 52.695312 C 313.265625 51.304688 312.058594 50.054688 310.71875 48.976562 C 308.042969 46.816406 304.851562 45.367188 301.535156 44.695312 C 298.210938 44.027344 294.78125 44.140625 291.554688 44.898438 C 289.9375 45.273438 288.371094 45.808594 286.878906 46.472656 C 285.382812 47.144531 283.964844 47.945312 282.628906 48.84375 C 279.953125 50.640625 277.613281 52.820312 275.59375 55.203125 L 280.597656 55.265625 C 278.066406 52.269531 275.011719 49.597656 271.445312 47.667969 C 267.882812 45.75 263.804688 44.632812 259.6875 44.65625 C 255.582031 44.679688 251.46875 45.855469 248.015625 48.097656 C 246.292969 49.222656 244.742188 50.609375 243.441406 52.203125 C 242.148438 53.800781 241.097656 55.597656 240.394531 57.519531 C 239.679688 59.433594 239.292969 61.453125 239.21875 63.460938 C 239.199219 63.960938 239.203125 64.460938 239.21875 64.957031 C 239.230469 65.210938 239.246094 65.449219 239.265625 65.710938 L 239.296875 66.070312 L 239.332031 66.417969 C 239.429688 67.351562 239.554688 68.28125 239.707031 69.203125 C 240.304688 72.898438 241.402344 76.503906 242.921875 79.886719 C 243.691406 81.574219 244.5625 83.210938 245.527344 84.777344 C 246.496094 86.339844 247.554688 87.839844 248.691406 89.269531 C 249.832031 90.695312 251.039062 92.054688 252.324219 93.335938 C 253.601562 94.621094 254.929688 95.84375 256.320312 96.988281 " fill-opacity="1" fill-rule="nonzero"/></g></svg>