<?xml version="1.0" encoding="utf-8"?>
<!-- Generator: Adobe Illustrator 27.5.0, SVG Export Plug-In . SVG Version: 6.00 Build 0)  -->
<svg version="1.1" xmlns="http://www.w3.org/2000/svg" xmlns:xlink="http://www.w3.org/1999/xlink" x="0px" y="0px"
	 viewBox="0 0 500 500" style="enable-background:new 0 0 500 500;" xml:space="preserve">
<g id="BACKGROUND:">
</g>
<g id="OBJECTS">
	<g>
		<ellipse style="fill:#E6E6E6;" cx="201.483" cy="429.539" rx="117.282" ry="7.859"/>
		<g>
			<g>
				<g>
					<path style="fill:#FF3D4F;" d="M106.326,150.877c-9.896,9.992-27.69,26.88-32.12,37.81c-0.737,1.818-1.328,3.982-0.365,5.96
						c0.577,1.186,1.628,2.087,2.714,2.741c1.253,0.756,2.642,1.261,3.978,1.251c1.695-0.012,3.172-0.835,4.609-1.654
						c6.98-3.975,21.048-16.822,26.758-22.612c2.879-2.92,5.857-5.997,7.193-9.975c1.095-3.262,0.97-6.842,0.333-10.207
						c-0.588-3.111,0.742-11.724-3.26-10.426C113.321,144.688,108.443,148.74,106.326,150.877z"/>
				</g>
				<g>
					<path style="fill:#E21E65;" d="M119.577,153.786c-0.563-2.981-1.534-9.965-5.37-8.721c-0.082,0.027-0.16,0.068-0.242,0.098
						c-5.548,8.779-8.702,19.079-12.09,28.792c-1.425,4.084-2.304,8.331-3.156,12.583c5.113-4.639,10.355-10.075,13.644-13.411
						c2.759-2.798,5.613-5.747,6.894-9.56C120.307,160.442,120.187,157.011,119.577,153.786z"/>
				</g>
			</g>
			<g>
				<g>
					<path style="fill:#FF3D4F;" d="M130.329,411.416L130.329,411.416c1.421,2.594,2.247,5.468,2.419,8.415l0.102,1.746
						c0.03,0.512-0.312,0.97-0.815,1.091c-1.875,0.45-24.248,1.728-29.179,2.769c-4.931,1.04-11.288,0.164-11.474-3.009
						c18.789-6.7,24.25-10.159,24.25-10.159L130.329,411.416z"/>
					<path style="fill:#182A45;" d="M101.737,424.269c4.443-0.937,25.563-2.637,31.078-3.293l0.035,0.601
						c0.03,0.512-0.312,0.97-0.815,1.091c-1.875,0.45-24.248,1.728-29.179,2.769c-4.414,0.931-9.966,0.325-11.216-2.088
						C93.811,424.767,98.15,425.025,101.737,424.269z"/>
					<g>
						<g>
							<path style="fill:#FFFFFF;" d="M108.783,415.286c0.826,0.74,2.246,1.115,3.316,1.343c0.814,0.173,1.667-0.241,1.897-1.077
								c0.202-0.734-0.25-1.765-1.077-1.897c-0.643-0.103-1.269-0.161-1.92-0.179c-0.577-0.016-1.229-0.066-1.775,0.141
								C108.57,413.863,108.175,414.742,108.783,415.286L108.783,415.286z"/>
						</g>
					</g>
					<g>
						<g>
							<path style="fill:#FFFFFF;" d="M105.538,416.801c0.676,1.169,2.67,1.598,3.915,1.71c0.702,0.063,1.334-0.595,1.411-1.246
								c0.088-0.737-0.338-1.333-1.029-1.577c-0.672-0.237-1.415-0.298-2.124-0.354c-0.665-0.053-1.301-0.078-1.873,0.325
								C105.468,415.92,105.296,416.383,105.538,416.801L105.538,416.801z"/>
						</g>
					</g>
				</g>
				<g>
					<path style="fill:#25526B;" d="M112.788,238.49l-0.494,10.206l-0.852,17.226l-3.633,51.39l1.099,10.664l4.109,82.297
						c0,0,2.885,4.459,9.868,4.824c6.984,0.365,10.318-2.378,10.318-2.378l1.544-70.357l-1.878-16.053l14.352-85.931L112.788,238.49
						z"/>
					<g>
						<g>
							<path style="fill:#182A45;" d="M112.438,264.384c1.334-0.521,2.333-1.771,3.237-2.842c1.022-1.211,1.989-2.495,2.793-3.862
								c0.58-0.986-0.935-1.866-1.53-0.895c-0.777,1.268-1.551,2.523-2.463,3.703c-0.818,1.059-1.963,2.063-2.496,3.299
								C111.857,264.068,112.067,264.528,112.438,264.384L112.438,264.384z"/>
						</g>
					</g>
					<path style="fill:#182A45;" d="M131.01,261.85l-6.14,62.771c0,0,12.612,80.634-1.984,90.474
						c6.984,0.365,10.318-2.378,10.318-2.378l1.544-70.357l-1.878-16.053l14.352-85.931L131.01,261.85z"/>
				</g>
				<g>
					<path style="fill:#FF3D4F;" d="M163.191,406.372c1.117,4.13,0.023,7.218-0.224,12.655c-0.164,3.604,0.401,8.072,8.929,6.674
						c7.89-1.294,6.729-6.988,6.508-7.783c-0.221-0.795-3.102-9.691-3.102-9.691L163.191,406.372z"/>
					<g>
						<g>
							<path style="fill:#FFFFFF;" d="M167.488,414.045c0.868-0.009,1.665-0.32,2.514-0.466c0.953-0.164,1.884-0.171,2.843-0.044
								c1.639,0.217,1.723-2.533,0-2.633c-2-0.117-4.798,0.236-5.964,2.087C166.596,413.44,166.967,414.05,167.488,414.045
								L167.488,414.045z"/>
						</g>
					</g>
					<g>
						<g>
							<path style="fill:#FFFFFF;" d="M167.872,416.199c1.725-0.157,3.341-0.497,5.088-0.471c1.622,0.024,1.535-2.287,0-2.463
								c-1.952-0.224-4.159,0.177-5.715,1.422C166.661,415.156,167.135,416.266,167.872,416.199L167.872,416.199z"/>
						</g>
					</g>
					<g>
						<path style="fill:#182A45;" d="M171.782,423.754c2.645-0.434,4.791-1.319,6.481-2.329c-0.614,1.744-2.268,3.604-6.367,4.276
							c-4.94,0.81-7.206-0.35-8.208-2.169C165.689,424.15,168.374,424.313,171.782,423.754z"/>
					</g>
				</g>
				<g>
					<path style="fill:#25526B;" d="M118.958,235.131l2.84,17.723c0.553,3.447,2.433,6.442,5.107,8.133l0,0
						c1.603,1.014,2.798,2.721,3.318,4.738l14.851,62.302l15.997,81.407c0,0,1.693,1.034,8.773,0.04
						c7.08-0.994,7.399-3.768,7.399-3.768l-3.146-38.538c-0.947-9.936-2.674-19.767-5.16-29.372l-2.788-10.773l-0.965-33.741
						c-0.162-7.349-0.704-14.687-1.622-21.977l-1.062-8.431c-0.197-1.563-0.128-3.149,0.202-4.671l0,0
						c1.007-4.637,1.175-9.48,0.492-14.227l-1.914-13.302L118.958,235.131z"/>
					<path style="fill:#182A45;" d="M162.064,327.258c-0.275-36.182-7.946-67.542-7.946-67.542s-18.054,1.046-19.943-17.889
						l26.842-11.128l0.264-0.028l1.914,13.301c0.683,4.748,0.516,9.591-0.492,14.228c-0.331,1.522-0.4,3.108-0.202,4.671
						l1.062,8.431c0.918,7.289,1.459,14.628,1.622,21.977l0.965,33.741l2.788,10.773c2.486,9.605,4.213,19.436,5.16,29.372
						l3.146,38.538C177.242,405.705,172.723,356.166,162.064,327.258z"/>
					<g>
						<g>
							<path style="fill:#25526B;" d="M143.337,254.169c1.414,2.522,4.07,4.229,6.841,4.93c2.499,0.632,6.708,0.846,8.533-1.289
								c0.293-0.342,0.102-0.875-0.369-0.891c-1.058-0.037-1.902,0.364-2.929,0.578c-1.583,0.331-3.212,0.365-4.797,0.011
								c-2.634-0.588-4.618-2.122-6.613-3.854C143.649,253.346,143.092,253.732,143.337,254.169L143.337,254.169z"/>
						</g>
					</g>
				</g>
			</g>
			<g>
				<path style="fill:#FF3D4F;" d="M140.762,247.66c5.306-0.919,10.564-2.167,15.735-3.631c2.685-0.76,5.439-1.662,7.99-2.924
					c-0.743-2.514-1.412-5.055-2.054-7.595c-1.782-7.049-5.529-25.6-5.529-25.6s1.781-21.768,2.433-34.358
					c0.457-8.813,0.551-18.072-3.799-25.883c-0.616-1.105-2.491-3.433-3.381-4.454c-6.865-3.232-13.931-4.843-15-5.375
					c-5.057,0.177-9.636,0.833-14.483,2.586c-3.388,1.225-8.048,2.74-10.233,6.105c-1.36,2.094-1.385,4.775-1.361,7.287
					c0.2,21.233,1.501,43.155,0.482,64.964c-0.29,6.214-0.955,12.434-1.512,18.688c-0.121,1.36-0.371,2.994-0.528,4.655
					C116.647,251.095,130.894,249.368,140.762,247.66z"/>
				<path style="fill:#E21E65;" d="M155.723,148.378c-0.615-1.106-1.358-2.173-2.247-3.195c-0.017-0.02-0.034-0.039-0.052-0.059
					c-2.195-2.475-6.26-1.131-6.902,2.188c-1.051,5.436-1.904,10.495-1.904,10.495l7.214,18.381c0,0,1.166,2.957,1.919,4.388
					c2.071,0.527,4.139,1.062,6.205,1.605c0.14-2.606,0.27-5.052,0.379-7.16C160.792,166.209,160.073,156.188,155.723,148.378z"/>
				<path style="fill:#E21E65;" d="M132.653,176.071c-5.733-1.761-12.361-3.532-18.097-0.781c1.021,1.881,1.761,3.901,2.785,5.781
					c1.94,3.559,4.595,3.208,7.967,3.214c4.499,0.008,8.653,2.402,12.648,4.216c6.861,3.116,12.801,5.202,19.918,7.665
					c0.226-4.118,1.065-9.28,1.286-13.383c-3.271-0.861-5.817-1.023-9.101-1.837C144.173,179.487,138.447,177.851,132.653,176.071z"
					/>
			</g>
			<path style="fill:none;" d="M112.178,125.508c0.058,0.168,0.115,0.336,0.173,0.504"/>
			<g>
				<path style="fill:#FFAB8A;stroke:#EF714B;stroke-width:1.1899;stroke-miterlimit:10;" d="M122.178,133.205
					c0.488,1.904,0.083,3.899-0.313,5.781c-0.437,2.073-0.461,2.254-1.053,4.288c-0.042,0.144-0.078,0.291-0.118,0.436
					c1.383,1.597,2.865,2.584,5.253,2.962c2.203,0.348,4.423,0.12,6.494-0.689c1.873-0.731,5.749-2.93,7.222-5.46
					c-0.059-0.296-0.125-0.587-0.179-0.887c-1.143-6.389-1.42-11.714-0.808-17.902c0.064-0.647-4.526-0.952-5.014-0.937
					c-1.842,0.059-3.933,0.504-5.501,1.515c-1.198,0.772-1.855,1.999-2.863,2.981c-1.557,1.517-3.099,2.922-4.389,4.692
					c-0.045,0.062,0.642,1.325,0.69,1.445C121.831,132.009,122.024,132.602,122.178,133.205z"/>
				<path style="opacity:0.3;fill:#FFAB8A;" d="M122.178,133.205c0.487,1.904,0.084,3.899-0.313,5.781
					c-0.12,0.568-0.26,1.131-0.391,1.696c2.819-0.905,5.495-2.197,7.648-4.284c3.948-3.827,3.586-9.131,2.355-14.101
					c-0.083-0.334-0.056-0.642,0.043-0.911c-4.193,1.911-7.901,4.882-10.611,8.6c-0.045,0.062,0.642,1.325,0.69,1.445
					C121.831,132.009,122.024,132.602,122.178,133.205z"/>
			</g>
			<g>
				<g>
					<path style="fill:#39222F;" d="M113.613,101.463c-1.231,2.857-1.705,5.989-1.815,9.097c1.937-2.492,3.874-4.984,5.81-7.476
						c1.284-1.652,3.541-4.397,2.636-6.674c-1.035-2.608-3.612,0.329-4.494,1.444C114.881,98.953,114.168,100.176,113.613,101.463z"
						/>
					<path style="fill:#FFAB8A;stroke:#EF714B;stroke-width:1.2489;stroke-linecap:round;stroke-miterlimit:10;" d="
						M133.031,128.431c-2.326,4.06-6.668,6.825-11.26,7.367c-3.552,0.42-5.486-1.429-6.995-4.499
						c-1.097-2.232-1.97-4.576-2.602-6.985c-0.318-1.212-0.697-2.521-0.784-3.777c-0.078-1.128,0.345-2.238,0.141-3.381
						c-0.142-0.797-0.572-1.515-0.753-2.304c-0.371-1.617,0.346-3.162,0.983-4.606c0.639-1.45,0.976-2.876,1.448-4.368
						c2.553-8.075,13.528-11.811,20.482-7.43c8.351,5.261,9.838,14.042,6.557,20.84"/>
					<path style="fill:#39222F;" d="M148.556,102.912c-0.029-0.392-0.1-0.762-0.221-1.106c-0.448-1.274-1.303-2.36-2.143-3.419
						c-1.483-1.87-2.966-3.739-4.449-5.609c-1.738-2.191-3.603-4.478-6.218-5.483c-3.586-1.378-8.081,0.325-9.84,3.728
						c-1.125-1.136-2.292-2.301-3.773-2.909c-1.481-0.608-3.371-0.522-4.474,0.636c-1.102,1.158-0.828,3.454,0.69,3.963
						c-3.445-0.026-6.878,1.386-9.302,3.824c-1.273,1.28-2.317,3.097-1.796,4.822c0.396,1.312,1.743,2.273,3.118,2.225
						c1.374-0.048,2.651-1.1,2.955-2.436c-1.447,1.145-1.068,3.677,0.437,4.747c1.504,1.069,3.632,0.876,5.263,0.009
						c1.631-0.867,2.875-2.294,4.08-3.69c-1.251,0.458-0.89,2.55,0.325,3.098c1.214,0.548,2.627,0.059,3.845-0.479
						c2.327-1.029,4.458-2.366,6.685-3.555c0.738,1.001-0.241,8.832-0.139,8.837c0.999,0.052,1.881,0.775,2.313,1.674
						c0.589,1.226,0.358,2.857,0.012,4.13c0.933-0.152,1.876-0.247,2.821-0.281c0.347-0.013,0.706-0.013,1.039,0.075l1.757,4.44
						c0.48-0.824,0.937-1.662,1.381-2.506c0.778-0.59,1.441-2.417,1.878-3.847C145.999,111.123,148.803,106.249,148.556,102.912z"/>
				</g>
				<g>
					<path style="fill:none;stroke:#EF714B;stroke-width:1.4385;stroke-linecap:round;stroke-miterlimit:10;" d="M118.059,113.395
						c-0.041,2.888-0.069,6.127-1.292,8.793c-0.164,0.358-0.352,0.742-0.269,1.127c0.093,0.432,0.493,0.719,0.864,0.963
						c0.524,0.346,1.048,0.691,1.573,1.037"/>
					<g>
						<path style="fill:#39222F;" d="M127.494,118.745c-1.451-0.242-1.076-2.488,0.377-2.246
							C129.322,116.741,128.947,118.987,127.494,118.745L127.494,118.745z"/>
					</g>
					<g>
						<path style="fill:#39222F;" d="M115.056,117.048c0.004-0.028,0.008-0.055,0.012-0.083c0.207-1.373,2.434-0.989,2.126,0.354
							c-0.006,0.027-0.012,0.055-0.019,0.082C116.869,118.735,114.85,118.422,115.056,117.048L115.056,117.048z"/>
					</g>
					<g>
						<g>
							<path style="fill:#39222F;" d="M130.157,112.912c-2.081-1.453-6.081-1.87-8.425-0.903c-0.756,0.312-0.679,1.393,0.197,1.453
								c1.342,0.092,2.693-0.205,4.05-0.148c1.335,0.056,2.649,0.346,3.986,0.308C130.358,113.61,130.461,113.124,130.157,112.912
								L130.157,112.912z"/>
						</g>
					</g>
					<g>
						<g>
							<path style="fill:#39222F;" d="M116.749,112.315c-0.796-0.659-1.827-0.897-2.841-1c-1.016-0.103-2.487-0.217-3.338,0.424
								c-0.49,0.369-0.448,1.096,0.171,1.305c0.901,0.304,2.016-0.001,2.968,0.007c0.949,0.008,1.923,0.128,2.859-0.05
								C116.858,112.945,116.98,112.506,116.749,112.315L116.749,112.315z"/>
						</g>
					</g>
					<g>
						<g>
							<path style="fill:#EF714B;" d="M124.595,126.774c-0.981,0.12-1.855,0.696-2.825,0.912c-1.243,0.276-2.351,0.122-3.595,0.025
								c-0.695-0.054-0.739,0.938-0.155,1.148c1.879,0.676,5.768,0.218,6.726-1.823
								C124.794,126.931,124.739,126.756,124.595,126.774L124.595,126.774z"/>
						</g>
					</g>
				</g>
				<g>
					
						<path style="fill:#FFAB8A;stroke:#EF714B;stroke-width:1.1807;stroke-linecap:round;stroke-linejoin:round;stroke-miterlimit:10;" d="
						M137.525,116.854c0.037-0.333,0.093-0.664,0.177-0.99c0.255-0.99,0.804-1.945,1.679-2.478c0.875-0.533,2.105-0.545,2.866,0.14
						c0.71,0.639,0.868,1.684,0.851,2.637c-0.043,2.487-1.002,4.949-2.655,6.814c-0.411,0.464-0.915,0.917-1.534,0.976
						c-0.619,0.059-1.308-0.489-1.159-1.09"/>
					
						<path style="fill:none;stroke:#EF714B;stroke-width:1.2489;stroke-linecap:round;stroke-linejoin:round;stroke-miterlimit:10;" d="
						M141.471,117.012c-0.005-0.282-0.011-0.571-0.118-0.832c-0.107-0.26-0.341-0.49-0.624-0.507
						c-0.266-0.016-0.515,0.16-0.66,0.383c-0.145,0.223-0.206,0.489-0.265,0.748c-0.229,1.013-0.459,2.027-0.688,3.04"/>
				</g>
			</g>
			<g>
				<g>
					<g>
						<g>
							<path style="fill:#FF3D4F;" d="M157.783,148.717c4.658,5.333,9.238,10.737,13.625,16.294
								c4.18,5.295,9.424,10.875,10.83,17.669c1.083,5.233-1.55,12.199-7.881,11.248c-3.093-0.465-6.515-4.419-8.479-6.607
								c-2.395-2.67-18.757-24.842-20.84-27.477c-1.494-1.891-1.401-5.388-1.555-7.692c-0.242-3.619,0.016-4.688,0.946-8.203
								c1.506-5.69,9.728,0.649,11.704,2.889C156.684,147.462,157.234,148.089,157.783,148.717z"/>
						</g>
					</g>
				</g>
				<g>
					<path style="fill:#FFAB8A;stroke:#EF714B;stroke-width:1.1944;stroke-miterlimit:10;" d="M130.247,170.878
						c0,0-9.045-4.928-9.045-4.928c-0.354-0.167-0.753-0.211-1.135-0.126l-4.428,0.993c-0.364,0.082-0.688,0.28-0.923,0.569
						c-0.667,0.824-1.727,2.542,0.395,3.174c0,0-2.208-0.051-2.003,1.841c0.178,1.646,2.191,1.498,2.191,1.498
						s-1.216,1.716,0.882,2.593c0,0-0.322,2.929,2.758,3.46l9.483-0.548c0.425,0.169,0.851,0.338,1.276,0.507
						c4.677,1.859,24.646,8.816,29.905,10.846c4.793,1.85,10.63,4.914,15.891,3.527c3.941-1.039,6.202-4.755,3.756-8.607
						c-1.12-1.763-3.21-3.36-5.105-4.249C168.347,178.706,131.956,171.685,130.247,170.878z"/>
					<g>
						<g>
							<path style="fill:#EF714B;" d="M114.559,171.033c0.539,0.35,1.207,0.364,1.832,0.437c0.696,0.082,1.319,0.188,1.984-0.08
								c0.333-0.134,0.406-0.539,0.098-0.751c-0.555-0.383-1.138-0.437-1.794-0.504c-0.658-0.067-1.37-0.225-2.004,0.011
								C114.283,170.292,114.193,170.796,114.559,171.033L114.559,171.033z"/>
						</g>
					</g>
					<g>
						<g>
							<path style="fill:#EF714B;" d="M114.291,173.795c0.325,0.555,1.161,0.496,1.732,0.536c0.83,0.059,1.587,0.084,2.35-0.258
								c0.278-0.125,0.154-0.504-0.077-0.589c-0.738-0.273-1.49-0.216-2.272-0.206c-0.549,0.007-1.325-0.135-1.709,0.333
								C114.272,173.664,114.255,173.732,114.291,173.795L114.291,173.795z"/>
						</g>
					</g>
					<g>
						<g>
							<path style="fill:#EF714B;" d="M116.312,177.141c0.666,0.023,1.337-0.019,2.004-0.042c0.241-0.008,0.508,0.001,0.747-0.049
								c0.387-0.081,0.465-0.253,0.767-0.481c0.073-0.055,0.118-0.176,0.032-0.248c-0.528-0.441-0.816-0.572-1.546-0.558
								c-0.722,0.014-1.455,0.077-2.157,0.245C115.51,176.163,115.675,177.12,116.312,177.141L116.312,177.141z"/>
						</g>
					</g>
					<g>
						<g>
							<path style="fill:#EF714B;" d="M118.881,169.448c-0.01,0.065-0.021,0.13-0.031,0.194c-0.134,0.847,1.08,1.021,1.166,0.158
								c0.007-0.065,0.013-0.13,0.02-0.196C120.101,168.952,118.985,168.793,118.881,169.448L118.881,169.448z"/>
						</g>
					</g>
					<g>
						<g>
							<path style="fill:#EF714B;" d="M119.409,171.813c-0.205,0.271-0.248,0.564-0.14,0.886c0.184,0.546,1.071,0.643,1.207,0
								c0.085-0.402,0.015-0.691-0.273-0.988C119.955,171.454,119.599,171.561,119.409,171.813L119.409,171.813z"/>
						</g>
					</g>
					<g>
						<g>
							<path style="fill:#EF714B;" d="M120.139,174.483c-0.787,0.461-0.148,1.678,0.634,1.207
								C121.494,175.255,120.855,174.064,120.139,174.483L120.139,174.483z"/>
						</g>
					</g>
					<g>
						<g>
							<path style="fill:#EF714B;" d="M120.471,176.829c-0.026,0.28,0.071,0.493,0.183,0.743c0.302,0.677,1.352,0.089,1.009-0.59
								c-0.126-0.249-0.249-0.41-0.478-0.563C120.859,176.202,120.502,176.498,120.471,176.829L120.471,176.829z"/>
						</g>
					</g>
				</g>
			</g>
			<g>
				<g>
					<path style="fill:#606060;" d="M123.323,170.686l-8.683,2.871c-0.683,0.226-1.42-0.143-1.646-0.822l-6.24-18.724
						c-0.227-0.68,0.143-1.414,0.826-1.64l8.683-2.871c0.683-0.226,1.42,0.143,1.646,0.822l6.24,18.724
						C124.375,169.726,124.005,170.46,123.323,170.686z"/>
					<g>
						<path style="fill:#4D4D4D;" d="M113.876,153.605c0.42,0.522,0.335,1.285-0.189,1.704c-0.525,0.418-1.29,0.334-1.711-0.189
							c-0.42-0.523-0.335-1.285,0.189-1.704C112.691,152.998,113.456,153.083,113.876,153.605z"/>
						<path style="fill:#7F7F7F;" d="M113.631,153.8c0.312,0.388,0.249,0.954-0.14,1.264c-0.389,0.311-0.958,0.248-1.269-0.14
							s-0.249-0.954,0.141-1.264C112.751,153.35,113.32,153.413,113.631,153.8z"/>
						<g>
							<g>
								<path style="fill:#FFFFFF;" d="M112.951,153.779c0.228,0.116,0.393,0.289,0.547,0.488c0.033,0.042,0.106,0.006,0.104-0.043
									c-0.015-0.353-0.245-0.556-0.582-0.606C112.929,153.604,112.854,153.729,112.951,153.779L112.951,153.779z"/>
							</g>
						</g>
					</g>
					
						<path style="fill:#FFAB8A;stroke:#EF714B;stroke-width:1.1877;stroke-linecap:round;stroke-linejoin:round;stroke-miterlimit:10;" d="
						M80.02,197.878c2.998,0.134,6.47-2.301,8.653-3.853c3.654-2.599,9.744-6.558,12.768-9.864c3.12-3.412,6.38-6.45,9.855-9.54
						c2.339-2.079,4.823-2.063,7.161-4.142c1.692-1.504,3.288-2.814,4.297-4.867c0.138-0.281,0.26-0.579,0.269-0.891
						c0.023-0.913-1.047-1.19-1.703-0.764c1.12-1.265,0.956-1.669,0.703-2.093c-0.384-0.642-1.141-0.598-1.141-0.598
						c0.691-0.397,0.874-0.59,0.454-1.732c-0.476-1.294-1.88-0.603-2.614-0.409c-0.584,0.155-1.304,0.56-1.573,0.718
						c-0.072,0.043-0.135,0.092-0.194,0.151l-1.274,1.279l1.506-2.016c2.56-2.485,3.676-4.28,3.322-5.055
						c-0.355-0.775-1.198-0.11-1.198-0.11c-1.773,1.78-3.547,3.56-5.32,5.34c-1.208,1.213-2.417,2.426-3.625,3.639
						c-0.17,0.171-0.345,0.338-0.519,0.506c-0.014-0.133-0.03-0.278-0.045-0.419l-1.539-4.617c-0.321,0.059-0.589,0.315-0.724,0.618
						c-0.149,0.336-0.17,0.713-0.199,1.079c-0.239,3.029-1.083,6.548-2.922,9.035c-1.703,2.302-4.367,3.886-6.773,5.36
						c-2.586,1.584-7.994,3.949-10.761,5.192c-3.055,1.372-5.849,1.774-8.338,4.113c-2.191,2.059-4.143,4.371-4.572,7.448
						c-0.435,3.124,2.074,5.452,4.912,6.305C79.254,197.801,79.633,197.861,80.02,197.878z"/>
					<g>
						<g>
							<path style="fill:#EF714B;" d="M116.388,164.579c1.408-1.262,2.962-2.251,4.718-2.96c0.568-0.229,0.339-1.157-0.259-0.939
								c-1.934,0.704-3.638,1.936-4.694,3.719C116.064,164.548,116.264,164.69,116.388,164.579L116.388,164.579z"/>
						</g>
					</g>
				</g>
				<g>
					<g>
						<path style="fill:#EF714B;" d="M118.31,166.86c0.68-0.346,1.257-0.808,1.842-1.298c0.602-0.504,1.404-0.903,1.921-1.487
							c0.335-0.378,0.02-1.12-0.536-0.92c-0.78,0.281-1.474,0.998-2.06,1.569c-0.596,0.58-1.071,1.224-1.315,2.023
							C118.135,166.835,118.235,166.898,118.31,166.86L118.31,166.86z"/>
					</g>
				</g>
			</g>
			<g>
				<path style="fill:#FF3D4F;" d="M81.296,116.395c-1.194-1.943-1.684-4.567,1.19-5.991c3.239-1.605,6.28,0.173,7.563,2.564
					c-1.668-3.108,2.501-9.103,6.612-6.666c0.406,0.241,0.744,0.558,1.046,0.896c2.751,3.079,2.069,6.887-0.031,10.495
					c-0.337,0.579-3.457,6.773-3.969,6.578c-4.324-1.649-8.745-3.444-11.63-6.804C81.804,117.148,81.536,116.785,81.296,116.395z"/>
				<path style="fill:#FF3D4F;" d="M60.633,107.241c-1.795-1.412-3.167-3.704-0.966-6.031c2.481-2.623,5.951-2.003,7.986-0.202
					c-2.645-2.341-0.818-9.402,3.886-8.534c0.465,0.086,0.892,0.267,1.293,0.48c3.651,1.94,4.335,5.748,3.619,9.857
					c-0.115,0.659-0.888,7.546-1.437,7.54c-4.63-0.056-9.401-0.215-13.275-2.373C61.371,107.772,60.994,107.524,60.633,107.241z"/>
				<path style="fill:#FF3D4F;" d="M71.338,77.61c-1.019-3.068-0.847-6.85,3.584-7.893c4.994-1.176,8.618,2.257,9.616,5.972
					c-1.297-4.83,6.403-11.77,11.293-7.083c0.483,0.463,0.847,1.009,1.155,1.575c2.802,5.137,0.626,10.179-3.442,14.488
					c-0.652,0.691-6.969,8.245-7.613,7.811c-5.439-3.667-10.964-7.567-13.86-13.136C71.796,78.813,71.543,78.226,71.338,77.61z"/>
			</g>
		</g>
		<g>
			<path style="fill:#FFFFFF;stroke:#BABABA;stroke-width:4.6614;stroke-miterlimit:10;" d="M288.711,427.448H171.576
				c-11.01,0-19.936-8.926-19.936-19.936V120.006c0-11.01,8.926-19.936,19.936-19.936h117.135c11.01,0,19.936,8.926,19.936,19.936
				v287.507C308.647,418.523,299.721,427.448,288.711,427.448z"/>
			<ellipse style="fill:#DADADA;" cx="234.296" cy="414.514" rx="8.097" ry="8.065"/>
			<g>
				<rect x="158.809" y="199.294" style="fill:#DADADA;" width="139.402" height="39.382"/>
				<g>
					<rect x="182.467" y="229.287" style="fill:#FFFFFF;" width="40.856" height="3.737"/>
					<ellipse style="fill:#FFFFFF;" cx="174.653" cy="231.169" rx="4.696" ry="4.677"/>
					<rect x="170.955" y="219.989" style="fill:#FFFFFF;" width="52.368" height="3.737"/>
					<rect x="170.955" y="211.145" style="fill:#BABABA;" width="65.789" height="4.522"/>
					<rect x="238.536" y="211.145" style="fill:#BABABA;" width="32.82" height="4.522"/>
					<rect x="273.149" y="211.145" style="fill:#FFFFFF;" width="14.002" height="4.522"/>
					<rect x="170.955" y="205.748" style="fill:#FFFFFF;" width="30.413" height="3.737"/>
				</g>
			</g>
			<g>
				<rect x="158.809" y="248.421" style="fill:#DADADA;" width="139.402" height="39.382"/>
				<g>
					<rect x="182.467" y="278.415" style="fill:#FFFFFF;" width="40.856" height="3.737"/>
					<ellipse style="fill:#FFFFFF;" cx="174.653" cy="280.297" rx="4.696" ry="4.677"/>
					<rect x="170.955" y="269.117" style="fill:#FFFFFF;" width="52.368" height="3.737"/>
					<rect x="170.955" y="260.273" style="fill:#BABABA;" width="65.789" height="4.522"/>
					<rect x="238.536" y="260.273" style="fill:#BABABA;" width="32.82" height="4.522"/>
					<rect x="273.149" y="260.273" style="fill:#FFFFFF;" width="14.002" height="4.522"/>
					<rect x="170.955" y="254.876" style="fill:#FFFFFF;" width="30.413" height="3.737"/>
				</g>
			</g>
			<g>
				<rect x="190.711" y="297.549" style="fill:#DADADA;" width="107.501" height="39.382"/>
				<g>
					<rect x="214.368" y="327.543" style="fill:#FFFFFF;" width="40.856" height="3.737"/>
					<path style="fill:#FFFFFF;" d="M211.25,329.424c0,2.583-2.102,4.677-4.696,4.677s-4.696-2.094-4.696-4.677
						c0-2.583,2.103-4.677,4.696-4.677S211.25,326.841,211.25,329.424z"/>
					<rect x="202.856" y="318.245" style="fill:#FFFFFF;" width="52.368" height="3.737"/>
					<rect x="202.856" y="309.401" style="fill:#BABABA;" width="65.789" height="4.522"/>
					<rect x="273.149" y="309.401" style="fill:#FFFFFF;" width="14.002" height="4.522"/>
					<rect x="202.856" y="304.004" style="fill:#FFFFFF;" width="30.413" height="3.737"/>
				</g>
			</g>
			<g>
				<rect x="158.809" y="346.677" style="fill:#DADADA;" width="107.501" height="39.382"/>
				<g>
					<rect x="182.467" y="376.67" style="fill:#FFFFFF;" width="40.856" height="3.737"/>
					<path style="fill:#FFFFFF;" d="M179.349,378.552c0,2.583-2.103,4.677-4.696,4.677c-2.594,0-4.696-2.094-4.696-4.677
						c0-2.583,2.103-4.678,4.696-4.678C177.246,373.875,179.349,375.969,179.349,378.552z"/>
					<rect x="170.955" y="367.373" style="fill:#FFFFFF;" width="52.368" height="3.737"/>
					<rect x="170.955" y="358.529" style="fill:#BABABA;" width="65.789" height="4.522"/>
					<rect x="241.248" y="358.529" style="fill:#FFFFFF;" width="14.002" height="4.522"/>
					<rect x="170.955" y="353.132" style="fill:#FFFFFF;" width="30.413" height="3.737"/>
				</g>
			</g>
			<g>
				<g>
					<path style="fill:#BABABA;" d="M177.262,138.777c0,2.513-1.019,4.788-2.665,6.438c-1.656,1.659-3.96,2.693-6.502,2.693
						c-2.542,0-4.836-1.034-6.493-2.693c-1.647-1.65-2.665-3.925-2.665-6.438c0-5.035,4.103-9.122,9.158-9.122
						C173.159,129.655,177.262,133.742,177.262,138.777z"/>
				</g>
				<g>
					<path style="fill:#DADADA;" d="M223.595,145.484c0,2.226-1.811,4.03-4.046,4.03c-2.235,0-4.046-1.804-4.046-4.03
						c0-2.225,1.811-4.03,4.046-4.03C221.784,141.455,223.595,143.259,223.595,145.484z"/>
					<path style="fill:#FFFFFF;" d="M220.375,144.985c-0.652,0.078-0.826,0.918-1.893,0.048c-0.118-0.068-0.025-0.25,0.085-0.33
						c0.394-0.286,0.938-0.353,1.39-0.171c0.085-0.033,0.081-0.162,0.021-0.23c-0.059-0.068-0.15-0.1-0.223-0.153
						c-0.09-0.066-0.414-0.446-0.434-0.556c-0.041-0.232,0.522-0.187,0.738-0.315c0.216-0.128,0.085-0.427,0.077-0.662
						c-0.031-0.92-1.368-0.834-2.381-0.329c-0.738,0.367-2.012,1.83-1.252,2.46c0.18,0.15,0.531,0.579,0.738,0.69
						c0.293,0.158,0.764-0.165,1.153,0.237c0.038,0.039,0.097,0.052,0.132,0.093c0.132,0.152,0.013,0.381-0.08,0.559
						c-0.143,0.274-0.207,0.634-0.013,0.876c0.255,0.317,0.756,0.23,1.138,0.375c0.352,0.135,0.6,0.503,0.592,0.879
						c-0.004,0.191-0.053,0.628,0.133,0.673c0.056,0.013,0.37-0.144,0.422-0.169c0.424-0.206,0.135-0.686,0.448-1.038
						c0.207-0.233,0.102-0.474,0.183-0.606c0.098-0.161,0.476-0.572,0.502-0.758c0.072-0.509-0.598-0.235-0.527-0.744
						C220.948,145.544,220.835,144.93,220.375,144.985z"/>
				</g>
				<g>
					<path style="fill:#BABABA;" d="M276.346,134.798c0,1.671-1.36,3.026-3.038,3.026c-1.678,0-3.038-1.355-3.038-3.026
						c0-1.671,1.36-3.026,3.038-3.026C274.986,131.772,276.346,133.127,276.346,134.798z"/>
					<g>
						<path style="fill:#FFFFFF;" d="M271.66,135.091c0.339,0.011,0.64,0.073,0.919,0.163c0.282,0.087,0.549,0.194,0.793,0.331
							l-0.89,0.13c0.256-0.51,0.588-0.963,0.998-1.358c0.198-0.203,0.423-0.386,0.671-0.552c0.244-0.169,0.518-0.315,0.845-0.423
							c-0.008,0.343-0.067,0.649-0.158,0.932c-0.086,0.285-0.195,0.554-0.331,0.803c-0.258,0.508-0.594,0.958-1.006,1.352
							l-0.52,0.496l-0.37-0.366c-0.199-0.197-0.377-0.423-0.539-0.67C271.908,135.686,271.765,135.414,271.66,135.091z"/>
					</g>
				</g>
				<rect x="183.488" y="131.32" style="fill:#BABABA;" width="83.793" height="6.404"/>
				<rect x="159.178" y="157.019" style="fill:#DADADA;" width="139.033" height="6.404"/>
				<rect x="159.178" y="165.727" style="fill:#DADADA;" width="139.033" height="6.404"/>
				<rect x="159.178" y="174.436" style="fill:#DADADA;" width="139.033" height="6.404"/>
				<rect x="159.178" y="183.144" style="fill:#DADADA;" width="79.127" height="6.404"/>
				<rect x="183.488" y="142.271" style="fill:#DADADA;" width="28.813" height="6.404"/>
			</g>
			<path style="fill:none;stroke:#BABABA;stroke-width:2.9643;stroke-miterlimit:10;" d="M151.641,399.752v15.997
				c0,6.461,5.259,11.699,11.746,11.699h133.514c6.487,0,11.746-5.238,11.746-11.699v-15.997H151.641z"/>
			<path style="fill:#FFFFFF;stroke:#BABABA;stroke-width:2.9643;stroke-miterlimit:10;" d="M308.647,115.527v-3.758
				c0-6.461-5.259-11.699-11.746-11.699H163.387c-6.487,0-11.746,5.238-11.746,11.699v3.758H308.647z"/>
			<g>
				<path style="fill:#BABABA;" d="M174.588,107.468c0,1.207-0.489,2.301-1.281,3.093c-0.796,0.797-1.903,1.294-3.124,1.294
					c-1.221,0-2.324-0.497-3.119-1.294c-0.791-0.793-1.281-1.886-1.281-3.093c0-2.419,1.971-4.383,4.4-4.383
					C172.617,103.085,174.588,105.049,174.588,107.468z"/>
			</g>
		</g>
		<g>
			<g>
				<g>
					<path style="fill:#BABABA;" d="M79.746,256.96c2.845,15.291,9.7,29.018,20.276,40.456c5.127,5.545,10.992,10.4,17.418,14.371
						c5.952,3.679,13.222,7.747,20.288,8.496c0.76,0.081,1.045-1.101,0.388-1.432c-6.454-3.247-13.292-5.211-19.517-9.046
						c-6.264-3.858-12.001-8.568-17.051-13.915c-10.222-10.821-17.774-24.597-20.997-39.153
						C80.433,256.211,79.649,256.438,79.746,256.96L79.746,256.96z"/>
				</g>
			</g>
			<g>
				<g>
					<path style="fill:#BABABA;" d="M61.455,252.783c4.05,20.935,13.984,39.957,28.643,55.453
						c7.176,7.586,15.372,14.225,24.304,19.638c8.112,4.915,18.698,10.871,28.351,11.531c0.624,0.043,0.879-0.91,0.322-1.189
						c-4.294-2.15-9.109-3.284-13.543-5.149c-4.833-2.034-9.52-4.398-14.019-7.093c-8.811-5.277-16.869-11.766-23.959-19.193
						c-14.312-14.992-24.734-33.966-29.157-54.256C62.263,251.906,61.337,252.17,61.455,252.783L61.455,252.783z"/>
				</g>
			</g>
			<g>
				<g>
					<path style="fill:#BABABA;" d="M79.22,318.256c7.33,8.965,15.923,16.775,25.582,23.172
						c9.137,6.051,20.411,12.528,31.387,14.298c0.76,0.123,1.417-0.986,0.577-1.369c-10.283-4.687-20.653-8.072-30.262-14.259
						c-9.819-6.323-18.567-14.101-26.216-22.911C79.644,316.447,78.614,317.515,79.22,318.256L79.22,318.256z"/>
				</g>
			</g>
			<g>
				<g>
					
						<rect x="142.78" y="318.822" transform="matrix(0.986 0.1669 -0.1669 0.986 60.9205 -27.4799)" style="fill:#DD8C3A;" width="102.423" height="59.941"/>
					<polygon style="fill:#EAAA5E;" points="239.483,386.889 138.496,369.798 196.01,329.152 					"/>
					<polygon style="fill:#FFC373;" points="190.685,358.745 148.499,310.697 249.485,327.788 					"/>
				</g>
				<path style="fill:#FF3D4F;" d="M207.701,350.454c1.081-3.48,0.53-7.173-3.827-8.39c-5.485-1.532-9.596,1.767-10.812,5.527
					c1.232-3.811-2.823-7.85-6.116-8.977c-3.88-1.328-7.477,1.451-8.623,5.079c-1.467,4.642,1.452,9.269,4.51,12.559
					c0.7,0.753,7.454,8.934,8.179,8.53c4.685-2.609,9.785-5.077,13.577-9.007C205.895,354.424,207.073,352.475,207.701,350.454z"/>
			</g>
		</g>
	</g>
	<g>
		<ellipse style="fill:#E6E6E6;" cx="331.988" cy="459.786" rx="85.827" ry="9.401"/>
		<g>
			<g>
				<g>
					<path style="fill:#FF3D4F;" d="M330.385,103.575c2.506-3.516,5.446-6.816,8.562-9.802c1.486-1.423,3.016-2.794,4.663-4.03
						c1.486-1.116,2.691-1.578,3.014-3.508c0.125-0.748-0.187-1.599-1.015-1.788c-3.565-0.815-7.509,3.864-9.766,6.222
						c-3.288,3.435-5.741,7.275-7.738,11.573C327.386,103.788,329.394,104.965,330.385,103.575L330.385,103.575z"/>
				</g>
			</g>
			<g>
				<g>
					<path style="fill:#FF3D4F;" d="M415.464,82.776c9.604,10.141,16.304,23.177,18.145,37.052
						c0.978,7.375,0.603,14.871-1.055,22.124c-0.81,3.544-1.911,7.002-3.324,10.352c-1.233,2.924-2.919,5.427-3.296,8.585
						c-0.135,1.129,1.464,2.045,2.37,1.36c5.304-4.011,7.557-13.685,8.87-19.915c1.564-7.422,1.813-15.069,0.762-22.578
						c-2.103-15.024-9.643-28.547-21.033-38.418C415.92,80.485,414.553,81.814,415.464,82.776L415.464,82.776z"/>
				</g>
			</g>
			<g>
				<g>
					<path style="fill:#FF3D4F;" d="M220.514,160.87c4.325,9.404,11.655,17.945,18.35,25.765c3.376,3.944,6.889,7.771,10.531,11.471
						c3.569,3.626,7.433,8.312,12.168,10.35c1.218,0.524,2.681-0.596,1.923-1.923c-2.311-4.043-6.449-7.079-9.72-10.351
						c-3.874-3.876-7.604-7.896-11.184-12.045c-6.958-8.064-12.612-17.177-19.575-25.19
						C221.743,157.492,219.812,159.344,220.514,160.87L220.514,160.87z"/>
				</g>
			</g>
			<path style="fill:#FF3D4F;" d="M427.804,137.67c3.946-24.477-3.31-48.823-33.824-52.843
				c-38.417-5.06-62.941,21.106-67.523,47.596c4.643-26.849-26.542-50.166-49.801-54.598c-27.412-5.223-48.968,16.943-53.211,42.478
				c-5.429,32.671,18.668,61.044,42.422,80.266c5.44,4.402,58.773,53.028,63.275,49.61c29.052-22.063,61.036-43.583,82.815-73.688
				C419.444,166.142,425.513,151.884,427.804,137.67z"/>
		</g>
		<g>
			<g>
				
					<path style="fill:#FFAB8A;stroke:#EF714B;stroke-width:1.2127;stroke-linecap:round;stroke-linejoin:round;stroke-miterlimit:10;" d="
					M407.772,164.708c-0.355-0.261-0.827-0.3-1.221-0.102l-15.056,6.412l-1.087-0.782l-0.01-3.436
					c0.071-1.327-0.697-2.557-1.924-3.081l-2.448,8.878c0,0-2.874,7.74-2.895,7.796c-0.276,0.749-1.641,2.302-3.656,4.322
					c1.149,2.54,3.216,4.785,5.695,6.394c2.06-2.72,4.19-5.387,6.506-7.914c3.197-0.828,4.978-2.055,6.702-4.861l0.754-0.304
					c0.914-0.368,1.433-1.335,1.232-2.297l0.805-0.312c0.816-0.316,1.338-1.115,1.298-1.986l-0.032-0.697l1.402-0.615
					c0.478-0.209,0.79-0.677,0.798-1.197c0.014-0.906-0.864-1.56-1.733-1.291l-1.737,0.539l6.471-3.508
					C408.389,166.259,408.461,165.213,407.772,164.708z"/>
				<g>
					<path style="fill:#FFAB8A;stroke:#EF714B;stroke-width:1.8418;stroke-linejoin:round;stroke-miterlimit:10;" d="
						M348.428,113.161c2.151-7.147,15.028,1.096,18.025,3.946c0.676,0.643,1.355,1.289,1.924,2.027
						c0.622,0.807,1.103,1.71,1.581,2.609c3.782,7.114,30.019,27.59,38.551,34.865c-2.929,4.181-5.678,8.484-8.538,12.711
						c-5.843-5.595-34.464-35.313-35.906-36.439c-2.221-1.729-4.966-2.275-7.439-3.509c-2.394-1.194-4.663-2.635-6.758-4.295
						c-0.427-0.338-0.858-0.699-1.106-1.183c-0.259-0.505-0.293-1.09-0.321-1.658C348.297,119.31,347.564,116.035,348.428,113.161z"
						/>
					<g>
						<g>
							<path style="fill:#D63545;" d="M357.208,52.766c0.29,0.544,0.685,1.038,1.159,1.409c1.881,1.474,4.111,0.408,4.411-1.603
								c0.136-0.909-0.058-1.931-0.44-2.887c-1.063-2.66-2.976-3.085-4.582-1.626c-0.738,0.67-1.173,1.731-1.086,2.908
								C356.715,51.568,356.904,52.195,357.208,52.766z"/>
							<path style="fill:#D63545;" d="M365.735,37.42c-4.461,0.198-4.894,5.533-3.117,8.608c0.969,1.677,3.082,2.839,4.899,2.154
								c1.062-0.4,1.841-1.347,2.298-2.382c0.659-1.491,0.731-3.231,0.196-4.771C369.364,39.165,367.843,37.327,365.735,37.42z"/>
							<path style="fill:#D63545;" d="M375.937,48.16c1.6-1.275,2.36-2.795,2.043-4.814c-0.272-1.733-1.655-2.987-3.483-3.079
								c-1.513-0.076-3.034,0.79-3.736,2.127c-0.458,0.873-0.575,1.889-0.517,2.872c0.081,1.357,0.584,2.821,1.776,3.484
								C373.243,49.431,374.842,49.032,375.937,48.16z"/>
							<path style="fill:#FF3D4F;" d="M361.395,50.525c1.132,0.679,2.595,0.776,3.807,0.252c1.212-0.524,2.14-1.654,2.415-2.941
								c0.828-3.875-3.068-8.099-7.03-7.388c-2.731,0.49-4.803,3.344-4.415,6.081c0.388,2.737,3.172,4.907,5.933,4.625"/>
							<path style="fill:#FF3D4F;" d="M373.528,40.849c-0.386-1.984-2.388-3.798-4.33-3.21c-1.483,0.449-2.321,2.108-2.316,3.653
								c0.007,2.207,1.083,5.128,3.411,5.83C373.395,48.056,373.937,42.947,373.528,40.849z"/>
							<path style="fill:#F8C7A4;" d="M363.417,47.52c0.055-0.22,0.13-0.435,0.225-0.641c0.667-1.456,2.171-2.444,3.741-2.629
								c1.397-0.165,2.891,0.253,3.873,1.255c0.982,1.002,1.356,2.609,0.756,3.876c-0.919,1.942-3.445,2.737-5.447,2.451
								c-1.129-0.161-2.233-0.754-2.816-1.73C363.292,49.336,363.199,48.389,363.417,47.52z"/>
							<path style="fill:#D63545;" d="M369.222,57.832c3.402-0.763,2.565-5.06,0.719-6.958c-0.536-0.551-1.329-1.016-2.048-0.742
								c-0.54,0.206-0.854,0.761-1.077,1.293c-0.598,1.429-0.89,3.045-0.753,4.593C366.189,57.462,367.885,58.132,369.222,57.832z"
								/>
							<path style="fill:#FF3D4F;" d="M371.015,54.564c1.659,0.492,3.46-0.209,4.846-1.24c1.219-0.907,2.276-2.146,2.57-3.633
								c0.831-4.205-4.219-4.891-6.939-3.062C369.114,48.227,367.128,53.412,371.015,54.564z"/>
							<path style="fill:#FF3D4F;" d="M361.752,56.157c3.702,2.897,7.898-1.675,7.196-5.502c-0.248-1.352-1.201-2.624-2.531-2.992
								c-0.792-0.219-1.646-0.111-2.42,0.164C360.776,48.968,358.575,53.67,361.752,56.157z"/>
						</g>
						<path style="fill:#FFB2A2;" d="M349.335,65.1c0.568-1.26,2.429-0.476,3.928-0.287c3.818,0.481,7.347-2.697,11.173-2.289
							c4.727,0.503,7.898,6.232,12.641,5.964c0.916-0.052,1.808-0.337,2.725-0.361c0.917-0.024,1.941,0.298,2.358,1.107
							c0.469,0.91-0.014,2.005-0.586,2.852c-3.126,4.632-7.217,5.314-12.529,5.095c-3.031-0.125-6.09-0.255-9.025-1.022
							c-3.255-0.851-6.523-2.809-8.702-5.351c-1.074-1.253-2.13-2.953-2.155-4.651C349.157,65.703,349.219,65.359,349.335,65.1z"/>
						<g>
							<path style="fill:#D63545;" d="M364.644,62.411c0.085,0.653,0.295,1.293,0.629,1.842c1.327,2.177,3.959,1.942,5.016,0.043
								c0.478-0.859,0.669-1.953,0.646-3.052c-0.063-3.058-1.816-4.197-3.972-3.337c-0.99,0.395-1.825,1.294-2.18,2.503
								C364.601,61.028,364.554,61.726,364.644,62.411z"/>
							<path style="fill:#D63545;" d="M378.948,50.242c-4.537-1.467-6.978,3.709-6.357,7.448c0.339,2.04,2.015,3.991,4.091,3.984
								c1.213-0.004,2.348-0.66,3.195-1.525c1.221-1.246,1.947-2.96,1.991-4.7C381.922,53.342,381.092,50.935,378.948,50.242z"/>
							<path style="fill:#D63545;" d="M385.113,64.793c2.081-0.679,3.412-1.916,3.855-4.053c0.38-1.835-0.532-3.606-2.326-4.38
								c-1.485-0.641-3.332-0.342-4.538,0.734c-0.787,0.702-1.286,1.676-1.598,2.681c-0.429,1.388-0.477,3.04,0.466,4.148
								C381.94,65.059,383.69,65.257,385.113,64.793z"/>
							<path style="fill:#FF3D4F;" d="M369.676,61.731c0.877,1.101,2.304,1.745,3.713,1.673c1.409-0.072,2.763-0.856,3.523-2.041
								c2.286-3.567-0.022-9.247-4.253-10.015c-2.917-0.529-6.063,1.552-6.704,4.436c-0.641,2.883,1.327,6.093,4.195,6.841"/>
							<path style="fill:#FF3D4F;" d="M385.454,56.58c0.36-2.129-0.96-4.69-3.124-4.827c-1.653-0.105-3.116,1.243-3.692,2.789
								c-0.824,2.21-0.846,5.534,1.219,7.105C382.609,63.741,385.073,58.831,385.454,56.58z"/>
							<path style="fill:#BBCEAA;" d="M369.696,80.626c3.658-0.126,7.253-1.623,9.912-4.129c0.496-0.468,0.974-0.99,1.195-1.635
								c0.221-0.644,0.125-1.438-0.39-1.885c-0.673-0.584-1.711-0.365-2.54-0.036c-2.25,0.893-4.262,2.373-5.781,4.252
								C371.233,78.253,370.386,79.45,369.696,80.626z"/>
							<path style="fill:#BBCEAA;" d="M368.415,74.398c-0.721-1.424-2.184-2.838-3.713-2.364c-1.586,0.492-1.935,2.591-1.664,4.224
								c0.225,1.354,0.658,2.904,1.439,4.054c0.902,1.329,2.185,2.514,3.242,3.727c0.108,0.124,0.237,0.257,0.401,0.259
								c0.243,0.002,0.378-0.271,0.456-0.5c0.294-0.87,0.618-1.735,0.892-2.611c0.226-0.722,0.157-1.471,0.126-2.232
								C369.528,77.325,369.055,75.88,368.415,74.398z"/>
							<g>
								<path style="fill:#749E8B;" d="M358.621,99.538c2.853-5.527,6.302-10.709,9.09-16.277c2.785-5.563,4.433-11.715,7.299-17.18
									c0.203-0.386,0.794-0.197,0.729,0.237c-0.906,6.017-4.127,12.118-6.834,17.518c-2.8,5.585-5.924,11.156-10.198,15.759
									C358.669,99.636,358.593,99.592,358.621,99.538L358.621,99.538z"/>
							</g>
							<path style="fill:#F8C7A4;" d="M372.829,59.48c0.138-0.2,0.294-0.386,0.466-0.557c1.215-1.207,3.091-1.634,4.732-1.234
								c1.459,0.356,2.797,1.332,3.402,2.701c0.605,1.369,0.374,3.116-0.702,4.16c-1.65,1.6-4.477,1.452-6.371,0.419
								c-1.069-0.582-1.951-1.587-2.166-2.782C372.02,61.251,372.284,60.268,372.829,59.48z"/>
							<path style="fill:#D63545;" d="M374.757,71.963c3.691,0.507,4.47-4.104,3.337-6.693c-0.329-0.752-0.947-1.512-1.77-1.507
								c-0.618,0.004-1.141,0.442-1.564,0.891c-1.136,1.206-2.036,2.714-2.482,4.313C371.862,70.461,373.306,71.764,374.757,71.963z
								"/>
							<g>
								<path style="fill:#749E8B;" d="M377.867,75.538c-2.602,1.46-5.081,3.143-7.218,5.237c-0.704,0.69-1.879-0.333-1.162-0.995
									c2.374-2.192,5.121-3.777,8.326-4.39C377.892,75.375,377.936,75.499,377.867,75.538L377.867,75.538z"/>
							</g>
							<g>
								<path style="fill:#749E8B;" d="M366.29,75.717c0.76,1.049,1.452,2.077,1.999,3.254c0.485,1.044,1.092,2.159,1.018,3.334
									c-0.019,0.306-0.435,0.324-0.591,0.126c-0.695-0.879-0.903-2.11-1.303-3.144c-0.446-1.15-0.86-2.322-1.346-3.455
									C366.009,75.697,366.208,75.603,366.29,75.717L366.29,75.717z"/>
							</g>
							<path style="fill:#FF3D4F;" d="M377.779,69.363c1.474,1.111,3.54,1.083,5.315,0.568c1.561-0.452,3.085-1.298,3.938-2.676
								c2.413-3.897-2.381-6.468-5.79-5.653C378.263,62.314,374.325,66.759,377.779,69.363z"/>
							<path style="fill:#FF3D4F;" d="M367.914,67.499c2.613,4.28,8.532,1.272,9.269-2.819c0.261-1.446-0.214-3.073-1.406-3.938
								c-0.709-0.515-1.605-0.725-2.483-0.74C369.642,59.943,365.671,63.825,367.914,67.499z"/>
						</g>
						<g>
							<path style="fill:#FFFFFF;" d="M382.017,71.366c-9.197,24.654-19.606,50.257-28.803,74.911
								c-1.191-26.998-3.366-54.191-4.558-81.188c0,0,2.996,7.443,10.208,3.724C366.077,65.093,368.557,77.204,382.017,71.366z"/>
						</g>
						<g>
							<path style="fill:#F9DCDA;" d="M362.451,68.158c-1.101-0.174-2.263-0.027-3.586,0.654c-1.529,0.789-2.866,1.072-4.028,1.034
								l-1.232,75.394c0.026-0.07,0.053-0.141,0.079-0.21l0.289-2.531L362.451,68.158z"/>
						</g>
						<g>
							<path style="fill:#F9DCDA;" d="M373.09,72.81l-17.123,66.167c8.487-22.383,17.757-45.38,26.05-67.612
								C378.321,72.969,375.456,73.215,373.09,72.81z"/>
						</g>
						<g>
							<path style="fill:#D63545;" d="M349.825,68.238c0.271,0.508,0.639,0.968,1.082,1.315c1.756,1.377,3.838,0.381,4.118-1.496
								c0.127-0.849-0.054-1.803-0.41-2.695c-0.993-2.483-2.779-2.88-4.278-1.519c-0.689,0.626-1.095,1.616-1.014,2.715
								C349.365,67.12,349.541,67.705,349.825,68.238z"/>
							<path style="fill:#D63545;" d="M357.786,53.911c-4.165,0.185-4.569,5.166-2.91,8.036c0.905,1.566,2.878,2.65,4.574,2.011
								c0.991-0.374,1.718-1.257,2.146-2.223c0.616-1.392,0.682-3.017,0.183-4.454C361.175,55.541,359.754,53.824,357.786,53.911z"
								/>
							<path style="fill:#D63545;" d="M367.311,63.938c1.494-1.191,2.203-2.61,1.907-4.494c-0.254-1.618-1.546-2.789-3.252-2.875
								c-1.413-0.071-2.832,0.737-3.488,1.986c-0.428,0.815-0.537,1.764-0.482,2.682c0.075,1.267,0.545,2.634,1.658,3.252
								C364.796,65.124,366.289,64.752,367.311,63.938z"/>
							<path style="fill:#FF3D4F;" d="M353.734,66.146c1.056,0.634,2.422,0.724,3.554,0.235c1.131-0.489,1.998-1.545,2.255-2.746
								c0.773-3.617-2.864-7.561-6.563-6.897c-2.55,0.458-4.484,3.122-4.122,5.677c0.362,2.555,2.962,4.582,5.539,4.318"/>
							<path style="fill:#FF3D4F;" d="M365.062,57.112c-0.361-1.853-2.229-3.546-4.042-2.997c-1.385,0.419-2.167,1.969-2.163,3.41
								c0.006,2.06,1.011,4.787,3.185,5.443C364.937,63.841,365.443,59.071,365.062,57.112z"/>
							<path style="fill:#F8C7A4;" d="M355.622,63.341c0.052-0.205,0.122-0.406,0.21-0.598c0.623-1.359,2.027-2.281,3.493-2.454
								c1.304-0.154,2.699,0.236,3.616,1.172c0.917,0.936,1.265,2.436,0.706,3.619c-0.858,1.813-3.217,2.555-5.086,2.289
								c-1.054-0.15-2.085-0.704-2.629-1.615C355.505,65.037,355.419,64.151,355.622,63.341z"/>
							<path style="fill:#D63545;" d="M361.042,72.969c3.177-0.712,2.395-4.724,0.671-6.497c-0.501-0.515-1.241-0.948-1.912-0.692
								c-0.505,0.192-0.798,0.71-1.006,1.207c-0.558,1.334-0.831,2.843-0.703,4.288C358.21,72.623,359.794,73.248,361.042,72.969z"
								/>
							<path style="fill:#FF3D4F;" d="M362.715,69.917c1.549,0.459,3.23-0.195,4.525-1.158c1.138-0.847,2.125-2.004,2.399-3.393
								c0.775-3.926-3.939-4.566-6.478-2.859C360.941,64.001,359.087,68.841,362.715,69.917z"/>
							<path style="fill:#FF3D4F;" d="M354.068,71.404c3.456,2.705,7.374-1.564,6.718-5.137c-0.232-1.263-1.121-2.45-2.363-2.794
								c-0.739-0.205-1.537-0.103-2.259,0.153C353.156,64.692,351.101,69.082,354.068,71.404z"/>
						</g>
						<g>
							<path style="fill:#D63545;" d="M377.105,51.562c0.182,0.342,0.43,0.651,0.727,0.884c1.18,0.925,2.58,0.256,2.769-1.006
								c0.085-0.571-0.036-1.212-0.276-1.812c-0.667-1.669-1.868-1.937-2.876-1.021c-0.463,0.421-0.736,1.087-0.682,1.825
								C376.795,50.811,376.914,51.204,377.105,51.562z"/>
							<path style="fill:#D63545;" d="M382.457,41.93c-2.8,0.124-3.072,3.473-1.957,5.403c0.609,1.053,1.935,1.782,3.075,1.352
								c0.667-0.251,1.155-0.845,1.443-1.495c0.414-0.936,0.459-2.028,0.123-2.995C384.735,43.026,383.78,41.872,382.457,41.93z"/>
							<path style="fill:#D63545;" d="M388.86,48.671c1.005-0.801,1.481-1.755,1.282-3.021c-0.171-1.088-1.039-1.875-2.186-1.933
								c-0.95-0.048-1.904,0.496-2.345,1.335c-0.287,0.548-0.361,1.186-0.324,1.803c0.051,0.852,0.367,1.771,1.115,2.187
								C387.17,49.469,388.173,49.219,388.86,48.671z"/>
							<path style="fill:#FF3D4F;" d="M379.733,50.156c0.71,0.426,1.629,0.487,2.389,0.158c0.76-0.329,1.343-1.039,1.516-1.846
								c0.52-2.432-1.925-5.083-4.413-4.637c-1.714,0.308-3.015,2.099-2.771,3.817c0.244,1.718,1.991,3.08,3.724,2.903"/>
							<path style="fill:#FF3D4F;" d="M387.348,44.082c-0.242-1.246-1.499-2.384-2.717-2.015c-0.931,0.282-1.457,1.324-1.454,2.293
								c0.004,1.385,0.68,3.219,2.141,3.659C387.265,48.606,387.605,45.399,387.348,44.082z"/>
							<path style="fill:#F8C7A4;" d="M381.002,48.27c0.035-0.138,0.082-0.273,0.141-0.402c0.419-0.914,1.363-1.534,2.348-1.65
								c0.876-0.104,1.815,0.159,2.431,0.788c0.616,0.629,0.851,1.638,0.475,2.433c-0.577,1.219-2.163,1.718-3.419,1.539
								c-0.708-0.101-1.402-0.473-1.768-1.086C380.923,49.41,380.865,48.815,381.002,48.27z"/>
							<path style="fill:#D63545;" d="M384.646,54.743c2.136-0.479,1.61-3.176,0.451-4.368c-0.336-0.346-0.834-0.638-1.286-0.466
								c-0.339,0.129-0.536,0.478-0.676,0.812c-0.376,0.897-0.559,1.911-0.473,2.883C382.742,54.51,383.806,54.931,384.646,54.743z"
								/>
							<path style="fill:#FF3D4F;" d="M385.771,52.691c1.041,0.309,2.172-0.131,3.042-0.778c0.765-0.569,1.429-1.347,1.613-2.281
								c0.522-2.64-2.648-3.07-4.355-1.922C384.578,48.713,383.331,51.968,385.771,52.691z"/>
							<path style="fill:#FF3D4F;" d="M379.957,53.691c2.324,1.819,4.958-1.051,4.517-3.454c-0.156-0.849-0.754-1.647-1.588-1.878
								c-0.497-0.138-1.033-0.07-1.519,0.102C379.344,49.179,377.962,52.13,379.957,53.691z"/>
						</g>
						<g>
							<path style="fill:#D63545;" d="M348.721,53.6c0.182,0.342,0.43,0.651,0.727,0.884c1.181,0.926,2.58,0.256,2.769-1.006
								c0.085-0.571-0.036-1.212-0.276-1.812c-0.667-1.67-1.868-1.936-2.876-1.021c-0.463,0.421-0.736,1.087-0.682,1.825
								C348.411,52.849,348.53,53.242,348.721,53.6z"/>
							<path style="fill:#D63545;" d="M354.073,43.968c-2.8,0.124-3.072,3.473-1.956,5.403c0.608,1.053,1.935,1.782,3.075,1.352
								c0.666-0.251,1.155-0.845,1.443-1.495c0.414-0.936,0.459-2.028,0.123-2.995C356.351,45.064,355.397,43.91,354.073,43.968z"/>
							<path style="fill:#D63545;" d="M360.477,50.709c1.005-0.801,1.481-1.755,1.282-3.021c-0.171-1.088-1.039-1.875-2.186-1.933
								c-0.95-0.048-1.904,0.496-2.345,1.335c-0.288,0.548-0.361,1.186-0.324,1.803c0.051,0.852,0.367,1.771,1.115,2.187
								C358.786,51.507,359.79,51.257,360.477,50.709z"/>
							<path style="fill:#FF3D4F;" d="M351.349,52.194c0.71,0.426,1.629,0.487,2.389,0.158c0.761-0.329,1.343-1.038,1.516-1.846
								c0.52-2.432-1.926-5.083-4.412-4.637c-1.714,0.308-3.015,2.099-2.771,3.817c0.244,1.718,1.991,3.08,3.724,2.903"/>
							<path style="fill:#FF3D4F;" d="M358.965,46.12c-0.242-1.246-1.499-2.384-2.718-2.015c-0.931,0.282-1.457,1.324-1.454,2.293
								c0.004,1.385,0.68,3.218,2.141,3.659C358.881,50.644,359.221,47.437,358.965,46.12z"/>
							<path style="fill:#F8C7A4;" d="M352.618,50.308c0.035-0.138,0.082-0.273,0.141-0.402c0.419-0.914,1.363-1.534,2.348-1.65
								c0.877-0.104,1.815,0.159,2.431,0.788c0.616,0.629,0.851,1.638,0.474,2.433c-0.577,1.219-2.163,1.718-3.419,1.539
								c-0.709-0.101-1.402-0.473-1.767-1.086C352.54,51.448,352.482,50.853,352.618,50.308z"/>
							<path style="fill:#D63545;" d="M356.262,56.781c2.136-0.479,1.61-3.176,0.451-4.368c-0.337-0.346-0.834-0.638-1.286-0.465
								c-0.339,0.129-0.536,0.477-0.676,0.812c-0.375,0.897-0.559,1.911-0.473,2.883C354.358,56.548,355.423,56.969,356.262,56.781z
								"/>
							<path style="fill:#FF3D4F;" d="M357.387,54.729c1.041,0.309,2.172-0.131,3.042-0.778c0.766-0.569,1.429-1.347,1.613-2.281
								c0.521-2.64-2.648-3.07-4.355-1.922C356.194,50.752,354.948,54.006,357.387,54.729z"/>
							<path style="fill:#FF3D4F;" d="M351.573,55.729c2.324,1.818,4.958-1.051,4.517-3.454c-0.156-0.849-0.754-1.647-1.588-1.878
								c-0.497-0.138-1.033-0.07-1.519,0.102C350.96,51.217,349.579,54.168,351.573,55.729z"/>
						</g>
					</g>
					<g>
						
							<path style="fill:#FFAB8A;stroke:#EF714B;stroke-width:1.8418;stroke-linecap:round;stroke-linejoin:round;stroke-miterlimit:10;" d="
							M351.143,110.644c2.151-0.492,3.822-1.706,6.062-0.91c0.726,0.258,1.439,0.549,2.136,0.874
							c0.528,0.246,1.05,0.512,1.512,0.866c0.199,0.152,0.389,0.325,0.508,0.545c0.262,0.487,0.103,1.126-0.284,1.522
							c-0.387,0.396-0.954,0.575-1.507,0.604c-0.554,0.029-1.105-0.076-1.651-0.172c-2.147-0.378-4.349-0.204-6.483,0.228"/>
						
							<path style="fill:#FFAB8A;stroke:#EF714B;stroke-width:1.8418;stroke-linecap:round;stroke-linejoin:round;stroke-miterlimit:10;" d="
							M351.029,114.123c2.555-0.541,4.733-2.142,7.365-1.394c0.852,0.242,1.689,0.519,2.508,0.83
							c0.618,0.235,1.23,0.491,1.768,0.835c0.232,0.148,0.454,0.317,0.589,0.535c0.3,0.482,0.097,1.127-0.369,1.533
							c-0.466,0.405-1.141,0.597-1.796,0.639c-0.655,0.042-1.305-0.052-1.948-0.136c-2.531-0.332-5.139-0.109-7.672,0.37"/>
						
							<path style="fill:#FFAB8A;stroke:#EF714B;stroke-width:1.8418;stroke-linecap:round;stroke-linejoin:round;stroke-miterlimit:10;" d="
							M350.45,117.468c2.555-0.54,4.733-2.142,7.365-1.394c0.852,0.242,1.689,0.52,2.507,0.83c0.619,0.235,1.23,0.491,1.769,0.835
							c0.232,0.148,0.454,0.317,0.589,0.535c0.3,0.482,0.097,1.127-0.369,1.533c-0.466,0.406-1.141,0.597-1.796,0.639
							c-0.656,0.042-1.305-0.052-1.948-0.136c-2.531-0.332-5.139-0.109-7.672,0.37"/>
						
							<path style="fill:#FFAB8A;stroke:#EF714B;stroke-width:1.8418;stroke-linecap:round;stroke-linejoin:round;stroke-miterlimit:10;" d="
							M350.129,120.833c2.143-0.453,3.97-1.797,6.178-1.169c0.715,0.203,1.417,0.436,2.104,0.696c0.519,0.197,1.032,0.412,1.484,0.7
							c0.194,0.124,0.38,0.266,0.494,0.449c0.251,0.405,0.081,0.946-0.31,1.286c-0.391,0.34-0.957,0.501-1.507,0.536
							s-1.094-0.043-1.634-0.114c-1.055-0.138-1.978-0.28-2.935,0.268c-0.453,0.259-2.436,1.078-2.933,1.237"/>
					</g>
					
						<path style="fill:#FFAB8A;stroke:#EF714B;stroke-width:1.8418;stroke-linecap:round;stroke-linejoin:round;stroke-miterlimit:10;" d="
						M367.937,118.53c-2.968-3.269-5.937-6.538-8.905-9.807c-0.288-0.317-0.657-0.665-1.08-0.59
						c-0.635,0.111-0.717,0.984-0.603,1.617c0.586,3.249,2.184,6.31,4.518,8.655c-0.176,2.699-0.267,5.144,1.586,7.121"/>
				</g>
				<path style="fill:#341845;" d="M393.716,179.833L393.716,179.833c0.789,0.495,1.832,0.259,2.329-0.528l16.335-25.851
					c0.497-0.786,0.26-1.825-0.53-2.319l0,0c-0.789-0.495-1.832-0.259-2.328,0.527l-16.335,25.851
					C392.69,178.3,392.927,179.339,393.716,179.833z"/>
				<g>
					
						<path style="fill:#FFAB8A;stroke:#EF714B;stroke-width:1.4553;stroke-linecap:round;stroke-linejoin:round;stroke-miterlimit:10;" d="
						M390.551,170.316c0.99,0.891,1.467,2.238,1.566,3.563c0.1,1.325-0.068,2.492-1.108,3.917"/>
					
						<path style="fill:#FFAB8A;stroke:#EF714B;stroke-width:1.2127;stroke-linecap:round;stroke-linejoin:round;stroke-miterlimit:10;" d="
						M402.857,169.675l-2.973,1.013c-1.118,0.459-1.813,1.334-1.815,2.539l0,0.074l-0.915,0.309
						c-0.441,0.149-0.746,0.551-0.77,1.014l0,0c-0.037,0.723,0.501,1.446,1.217,1.323l3.157-0.478"/>
					
						<path style="fill:#FFAB8A;stroke:#EF714B;stroke-width:1.2127;stroke-linecap:round;stroke-linejoin:round;stroke-miterlimit:10;" d="
						M402.98,172.415c-1.603,0.366-3.962,0.786-5.566,1.152"/>
					
						<path style="fill:#FFAB8A;stroke:#EF714B;stroke-width:1.2127;stroke-linecap:round;stroke-linejoin:round;stroke-miterlimit:10;" d="
						M400.324,175.673c0,0-2.807,0.232-3.52,0.266c-0.56,0.026-1.226,0.157-1.683,0.504c-0.195,0.149-0.347,0.374-0.345,0.619
						c0.003,0.258,0.177,0.49,0.394,0.632c1.134,0.741,2.534,0.648,3.79,0.37"/>
				</g>
			</g>
			<g>
				<path style="fill:#B2E4FB;" d="M313.473,172.107c14.354-2.108,22.009,0.137,43.331,28.171c0,0,22.2-24.707,26.347-23.256
					c0,0-1.168,2.201,2.021,6.89c1.861,2.737,4.826,2.669,4.826,2.669c0.923,4.605-17.539,37.772-24.063,40.289
					c-6.524,2.517-29.662-8.875-34.792-14.456C326.012,206.833,313.473,172.107,313.473,172.107z"/>
				<path style="fill:#88CDE5;" d="M323.907,171.608c2.849,2.632,5.733,5.237,8.692,7.731c1.89,1.592,3.792,3.146,5.584,4.814
					c0.06,0.164,0.133,0.323,0.189,0.489c1.822,5.329,2.116,11.401,2.825,16.95c0.847,6.643,1.751,13.264,3.187,19.772
					c-5.896-3.138-11.165-6.691-13.242-8.95c-5.13-5.581-17.669-40.307-17.669-40.307
					C317.683,171.489,320.9,171.064,323.907,171.608z"/>
			</g>
			<path style="fill:#101E33;" d="M279.037,111.664c-4.511,1.819-8.661,5.852-10.784,9.949c-4.539,8.759-2.066,21.285-0.371,30.674
				c0.051,0.283,0.103,0.567,0.156,0.85c1.259,6.761,2.517,13.522,3.776,20.282c0.319,1.715,0.653,3.471,1.527,4.964
				c3.422,5.851,11.396,6.356,17.135,6.74c3.381,0.226,7.085,0.159,9.707-2.06c5.663-4.792,3.942-15.535,4.131-22.221
				c0.221-7.841,0.443-15.682,0.664-23.523c0.181-6.415-0.331-13.064-4.417-18.271C295.494,112.617,286.316,108.728,279.037,111.664
				z"/>
			<g>
				<path style="fill:#6EC9DB;" d="M403.408,308.865c0,0-107.315,2.398-138.214,45.497L299.8,230.271l35.482-9.062L403.408,308.865z
					"/>
				<path style="fill:#B2E4FB;" d="M303.866,167.177l31.117,69.15c0,0,54.42,76.125,66.077,92.092c0,0,6.563-3.478,2.348-19.555
					c-1.983-7.564-57.773-76.413-57.773-76.413s-10.252-15.256-10.652-46.343c-4.116-8.387-13.546-17.12-13.546-17.12
					S315.972,165.321,303.866,167.177z"/>
				<path style="fill:none;stroke:#88CDE5;stroke-width:2.2086;stroke-miterlimit:10;" d="M383.423,281.658
					c-0.382,2.896-2.542,5.486-5.33,6.392"/>
			</g>
			<g>
				
					<path style="fill:#FFAB8A;stroke:#EF714B;stroke-width:1.2127;stroke-linecap:round;stroke-linejoin:round;stroke-miterlimit:10;" d="
					M391.873,440.314c-0.036,0-0.048,0.001-0.061-0.005c-2.436-1.208-11.38-6.907-12.891-10.819
					c-1.295-3.355-2.766-7.522-4.324-12.163c-7.96-23.74-15.837-60.945-17.277-67.076c-0.933-3.971-1.166-15.115-1.921-31.263
					c-1.403-30.003-6.804-51.799-14.713-69.986c-3.214-7.39-11.737-10.913-19.298-8.06l0,0c-5.429,2.048-9.211,6.995-9.744,12.754
					c-1.636,17.673-10.074,38.853,8.954,51.483c3.293,7.347,16.704,31.471,18.864,43.412c2.549,14.09,3.564,21.069,9.857,36.262
					c2.62,6.324,13.279,25.289,16.918,35.623l0.079-0.028c2.319,6.23,4.338,11.98,5.058,14.283c0.016,0.643,0.726,4.693,0.604,5.36
					c-0.185,1.008,2.466,7.208,2.466,7.208l17.61-6.992C391.975,440.308,391.912,440.311,391.873,440.314z"/>
				<path style="fill:#EF714B;" d="M309.83,264.173c0.588-3.658,1.143-7.113,1.458-10.511c0.541-5.848,4.456-10.973,9.973-13.054
					c7.788-2.935,16.463,0.688,19.753,8.252c8.763,20.152,13.448,42.43,14.742,70.111c0.178,3.82,0.328,7.359,0.464,10.591
					c0.064,1.514,0.125,2.957,0.185,4.341c-2.516,1.432-5.449,2.409-7.829,3.374c-3.828,1.552-7.792,2.511-11.769,3.459
					c-3.182-8.711-8.637-19.538-12.585-27.375c-1.655-3.284-3.088-6.128-3.908-7.947
					C304.862,295.096,307.388,279.376,309.83,264.173z"/>
				<path style="fill:#B2E4FB;" d="M374.504,450.827c-1.366-3.792-4.115-12.146-3.091-15.403c0,0,4.386,3.46,8.233,2.109
					c2.503-0.879,1.482-6.971,4.081-6.433c2.279,0.471,4.689,3.264,10.909,4.806c5.357,1.328,10.856,2.917,10.856,2.917l0.298,0.648
					c0.506,1.098-0.041,2.391-1.182,2.798l-27.462,9.797C376.072,452.448,374.89,451.897,374.504,450.827z"/>
				<path style="fill:#25526B;" d="M374.062,449.877c0,0-5.549-12.616-4.206-16.891c0,0,4.386,3.46,8.233,2.109
					c2.503-0.879,1.482-6.971,4.081-6.433c2.279,0.471,4.689,3.264,10.909,4.806c6.22,1.542,9.987-0.841,12.527,5.332
					L374.062,449.877z"/>
			</g>
			<path style="fill:none;" d="M345.141,229.054c-0.258-0.626-0.516-1.252-0.774-1.878"/>
			<g>
				
					<path style="fill:#FFAB8A;stroke:#EF714B;stroke-width:1.2127;stroke-linecap:round;stroke-linejoin:round;stroke-miterlimit:10;" d="
					M319.593,244.914c-4.479,0.022-8.754,1.859-11.816,5.114c-6.66,7.079-16.772,21.462-15.427,42.57c0,0-0.059,0.316-0.15,0.871
					c-2.538,14.52-2.746,23.952-2.171,31.226l0,0c0.635,8.027,2.215,13.443,2.655,20.194c0.641,9.828-5.958,23.755-2.719,39.675
					c1.167,5.737,2.4,21.444,3.286,34.652c0.03,0.441,0.059,0.882,0.088,1.317c0.016,0.246,0.032,0.49,0.048,0.733
					c0.026,0.392,0.051,0.781,0.076,1.166c0.017,0.256,0.033,0.512,0.05,0.765c0.023,0.365,0.046,0.724,0.069,1.082
					c0.025,0.392,0.05,0.779,0.074,1.162c0.023,0.373,0.047,0.745,0.07,1.109c0.019,0.302,0.037,0.597,0.055,0.892
					c0.013,0.212,0.026,0.422,0.039,0.631c0.023,0.382,0.047,0.761,0.069,1.13c0,0.002,0,0.004,0,0.006
					c0.027,0.447,0.054,0.883,0.079,1.31h0c0.336,5.565,0.535,9.304,0.535,9.304l-1.909,16.741l12.048,0.498
					c-0.589-5.059-2.226-20.216-1.504-26.55c0,0,0-0.001,0-0.001c3.769-33.055,4.839-71.304,7.227-86.26
					c1.007-6.304,5.859-16.407,7.926-24.511c0.011-0.04,6.243-23.558,9.918-25.4c5.387-2.701,9.652-9.823,12.908-17.853
					C347.258,261.344,335.989,244.832,319.593,244.914z"/>
				<path style="fill:#EF714B;" d="M292.326,344.913c-0.15-2.3-0.436-4.442-0.77-6.593h20.749c-0.731,2.21-1.308,4.246-1.586,5.987
					c-0.885,5.545-1.594,14.378-2.322,24.883c-4.036,0.969-8.55,0.724-12.506,0.851c-2.321,0.075-4.624-0.038-6.92-0.218
					c0.386-4.171,1.132-8.129,1.837-11.851C291.755,352.984,292.572,348.676,292.326,344.913z"/>
				<path style="fill:#B2E4FB;" d="M291.89,463.011h11.766c2.008,0,3.637-1.628,3.637-3.637v-0.142h-19.039v0.142
					C288.254,461.383,289.882,463.011,291.89,463.011z"/>
				<path style="fill:#25526B;" d="M291.449,443.816c0,0,0.708-4.689,7.186-3.871c6.479,0.818,5.471,5.525,5.471,5.525
					s1.072-0.72,1.846,0.076c0.774,0.797-0.698,7.283,0.801,8.723c1.499,1.44,0.572,5.02,0.572,5.02h-19.107
					c0,0-0.505-5.463,1.584-7.099C291.892,450.554,287.776,444.182,291.449,443.816z"/>
			</g>
			<path style="fill:#ED4C71;" d="M276.802,203.691c-2.508-11.839,0.232-25.18,8.025-33.95c5.013-1.609,10.437-2.162,15.598-2.171
				c3.278-0.006,5.171,0.725,5.171,0.725s22.995,18.977,24.194,24.872c0.7,3.444-0.641,7.009-1.24,10.362
				c-1.328,7.435-1.554,14.149,1.656,21.261c5.601,12.41,45.512,83.866,46.912,86.968c0.097,0.216,0.204,0.431,0.314,0.646
				c-10.543,6.898-28.711,14.669-41.343,17.169c-11.431,2.263-22.76,4.196-34.416,2.538c-6.608-0.94-13.752-1.778-19.833-4.686
				c1.536-24.918,12.202-91.75,14.447-100.842C296.287,226.582,284.701,215.775,276.802,203.691z"/>
			<path style="fill:#25526B;" d="M276.802,203.691c-2.508-11.839,0.232-25.18,8.025-33.95c5.013-1.609,10.437-2.162,15.598-2.171
				c3.278-0.006,5.171,0.725,5.171,0.725s22.995,18.977,24.194,24.872c0.7,3.444-0.641,7.009-1.24,10.362
				c-1.328,7.435-1.554,14.149,1.656,21.261c5.601,12.41,45.512,83.866,46.912,86.968c0.097,0.216,0.204,0.431,0.314,0.646
				c-10.543,6.898-28.711,14.669-41.343,17.169c-11.431,2.263-22.76,4.196-34.416,2.538c-6.608-0.94-13.752-1.778-19.833-4.686
				c1.536-24.918,12.202-91.75,14.447-100.842C296.287,226.582,284.701,215.775,276.802,203.691z"/>
			<g>
				<path style="fill:#182A45;" d="M325.262,228.725c-2.739-7.763-1.9-14.802,0.16-22.502c0.929-3.472,2.659-7.102,2.23-10.785
					c-0.631-5.428-17.374-22.475-22.019-27.112c0.777,0.643,22.979,19.05,24.157,24.841c0.7,3.444-0.641,7.009-1.24,10.362
					c-1.328,7.435-1.554,14.149,1.656,21.261c5.601,12.41,45.512,83.866,46.912,86.968c0.097,0.216,0.204,0.431,0.314,0.646
					c-3.544,2.319-7.956,4.731-12.724,7.012C356.805,301.406,329.415,240.493,325.262,228.725z"/>
				<path style="fill:#C7405F;" d="M304.062,167.906c-0.012-0.006-0.017-0.008-0.029-0.014c0.009,0.002,0.014,0.003,0.023,0.005
					C304.058,167.901,304.059,167.903,304.062,167.906z"/>
			</g>
			<g>
				<g>
					<path style="fill:#B2E4FB;" d="M286.625,170.622c0,0,4.186,5.756,10.775,32.438c2.229,9.029,13.416,12.593,15.878,26.609
						c4.929,28.064,2.095,76.104,6.365,130.04c0,0-43.131,5.305-54.449-5.347c8.348-36.212,25.772-108.469,25.772-108.469
						s-16.103-15.962-18.169-30.75c-3.58-25.621-2.832-45.397,12.268-44.668C285.579,170.5,286.099,170.548,286.625,170.622z"/>
				</g>
				<g>
					<path style="fill:#88CDE5;" d="M285.522,184.035c3.589,6.518,3.996,14.348,4.362,21.605
						c0.531,10.537,0.504,21.097,0.102,31.638c-0.092,2.407-0.222,4.811-0.36,7.214c-3.903-4.194-15.126-17.166-16.828-29.349
						c-2.502-17.905-2.882-32.945,2.265-40.137C279.387,176.81,283.106,179.647,285.522,184.035z"/>
				</g>
				<path style="fill:none;stroke:#88CDE5;stroke-width:2.2086;stroke-miterlimit:10;" d="M304.967,318.636
					c-7.582,0.951-15.362,0.303-22.679-1.89"/>
			</g>
			<g>
				
					<path style="fill:#FFAB8A;stroke:#EF714B;stroke-width:1.7703;stroke-linecap:round;stroke-linejoin:round;stroke-miterlimit:10;" d="
					M267.376,263.425c-1.937,6.244-2.379,8.015-6.612,17.618c-0.49,1.111-0.756,2.644-0.87,3.84
					c-0.126,1.323,0.266,2.714,0.405,4.044c0.303,2.908-1.242,4.563-1.443,7.491c-0.198,2.876-0.027,4.104,0.592,6.901
					c-0.972,0.57-2.26,0.071-2.939-0.799c-0.679-0.871-1.2-1.685-1.423-4.166c-0.1-1.112,0.279-1.009-0.456-1.832
					c-2.765-0.11-8.926,2.811-9.917,3.486c-1.308,0.891-2.044,2.021-3.052,3.22c-0.484,0.576-0.99,1.18-1.678,1.474
					c-0.488,0.209-1.473,0.265-1.785-0.276c-0.338-0.586,0.177-1.652,0.586-2.092c0.763-0.819,1.931-3.4,1.931-3.4
					s0.799-0.672,1.866-1.144c0.905-0.401,1.662-0.906,2.757-1.344c-4.941,2.367-4.823,2.436-7.191,5.349
					c-0.631,0.777-1.33,1.6-2.349,1.746c-0.671,0.096-0.946-0.082-1.157-0.721c-0.205-0.621,0.171-1.165,0.527-1.647
					c1.108-1.502,2.976-3.611,3.611-4.964c1.946-1.571,2.787-2.209,5.596-3.206c-0.123,0.022-2.509,0.93-4.13,1.925
					c-1.168,0.717-2.876,2.756-4.355,4.078c-0.408,0.365-0.907,0.757-1.434,0.646c-0.59-0.124-0.867-0.86-0.72-1.454
					c0.147-0.594,0.587-1.07,1.01-1.515c0.828-0.872,1.373-2.057,2.281-2.924c1.809-1.726,3.903-2.723,6.321-4.033
					c-1.215,0.658-2.253,0.812-3.516,1.37c-1.384,0.612-2.588,2.382-3.657,2.605c-0.72,0.15-1.592-0.232-1.694-0.957
					c-0.082-0.582,1.118-1.086,1.48-1.559c1.591-2.08,4.486-3.248,6.876-4.193c2.044-0.808,8.068-3.487,9.687-8.713
					c1.9-6.134,3.143-11.913,4.234-17.651L267.376,263.425z"/>
				<path style="fill:#B2E4FB;" d="M278.167,172.794c7.18-2.996,12.161,7.853,8.685,30.293
					c-2.19,19.373-17.196,79.328-23.729,84.245c-6.534,4.917-10.858-4.039-13.609-7.332c-2.751-3.293,9.936-42.258,9.936-42.258
					S264.452,178.516,278.167,172.794z"/>
			</g>
			<g>
				<path style="fill:#25526B;" d="M281.025,171.085c0,0-1.465-5.041,5.385-11.133c6.85-6.091,19.335-2.647,21.455,3.202
					C309.985,169.002,281.025,171.085,281.025,171.085z"/>
				<path style="fill:#6EC9DB;" d="M320.684,181.913c0,0-6.128-6.613,4.373-10.378c-3.248-3.957-12.286-13.179-24.782-13.492
					c-6.211-0.144-2.124,9.693-2.124,9.693S301.325,161.598,320.684,181.913z"/>
				<g>
					
						<path style="fill:#FFAB8A;stroke:#EF714B;stroke-width:1.6138;stroke-linecap:round;stroke-linejoin:round;stroke-miterlimit:10;" d="
						M302.793,165.055c-3.667-6.634-4.07-14.33-4.546-21.634c-0.497-1.014-1.133-1.98-2.146-2.697
						c-4.26-3.017-9.643,1.555-11.201,4.88c-1.274,2.72,0.044,4.913,0.706,7.67c0.771,3.212,1.213,6.483,1.316,9.761
						c0.063,1.98-0.069,4.135-1.554,5.648c0.903,0.71,1.858,1.371,2.858,1.977c1.754,1.063,3.645,1.959,5.628,2.664
						c2.597,0.922,5.512,1.516,8.207,0.832c2.362-0.6,4.04-2.229,4.474-4.252C305.064,168.434,303.783,166.846,302.793,165.055z"/>
					<path style="fill:#EF714B;" d="M302.793,165.055c-3.875-7.01-4.105-15.207-4.628-22.874c-0.43-0.66-0.965-1.274-1.687-1.785
						c-1.688-1.197-3.742-1.405-5.949-0.582c-1.925,0.714-3.752,2.198-5.018,3.842c-0.298,6.865,3.999,14.157,9.46,19.053
						c3.089,2.769,6.514,4.845,10.569,6.144C304.484,167.68,303.552,166.428,302.793,165.055z"/>
				</g>
				<path style="fill:#6EC9DB;" d="M295.685,195.464c0,0-6.151-25.255-9.388-31.032s-11.96,12.482-11.96,12.482
					S285.089,181.864,295.685,195.464z"/>
			</g>
			<g>
				<g>
					<g>
						
							<path style="fill:#FFAB8A;stroke:#EF714B;stroke-width:1.4295;stroke-linecap:round;stroke-linejoin:round;stroke-miterlimit:10;" d="
							M277.219,124.096c-0.414,1.002-0.747,2.072-1.002,3.195c-0.485,2.139-0.913,4.31-0.929,6.504
							c-0.047,6.179,3.268,12.01,7.888,15.794c6.598,5.404,16.24,8.131,24.418,5.48c0.751-0.243,1.518-0.552,2.041-1.168
							c0.669-0.788,0.816-1.924,0.935-2.988c0.298-2.676,0.951-5.143,0.895-7.866c-0.059-2.851-0.587-5.782-2.131-8.209
							c-0.463-0.727-1.181-1.171-1.706-1.861c-0.531-0.699-0.913-1.51-1.103-2.368c-0.194-0.879-0.19-1.788-0.32-2.679
							c-0.11-0.755-0.33-1.746-0.949-2.258c-0.63-0.522-1.125-1.073-1.667-1.705c-1.255-1.465-2.575-2.874-3.952-4.227
							c-3.624-3.561-8.939-4.643-13.732-3.452C281.655,117.346,278.825,120.213,277.219,124.096z"/>
					</g>
					<g>
						<path style="fill:#101E33;" d="M300.667,148.629c0.257,0.292,0.555,0.546,0.886,0.75c1.66,1.023,4.037,0.736,5.326-0.739
							c0.672-0.768,1.038-1.848,0.654-2.828c-0.533-1.362-1.876-1.829-3.241-1.587c-0.688,0.122-1.348,0.365-2.042,0.472
							c-0.714,0.111-1.641-0.03-2.191,0.541c-0.396,0.411-0.42,1.059-0.297,1.617C299.905,147.511,300.224,148.126,300.667,148.629z
							"/>
						<g>
							<path style="fill:#F24052;" d="M299.787,146.945c0.153,0.621,0.457,1.204,0.88,1.684c0.257,0.292,0.555,0.546,0.886,0.75
								c1.66,1.023,4.037,0.736,5.326-0.739c0.024-0.027,0.044-0.057,0.066-0.085C305.025,146.795,301.988,145.702,299.787,146.945z
								"/>
						</g>
					</g>
					<path style="fill:#101E33;" d="M301.535,116.313c-2.681-2.675-5.513-4.924-9.04-6.143c-9.278-3.205-20.767,2.595-23.346,12.066
						c-1.795,6.591-1.149,13.812,1.788,19.983c2.936,6.171,8.139,11.241,14.397,14.03c-1.043-0.465-2.276-4.557-2.737-5.619
						c-0.752-1.73-1.977-3.939-2.038-5.781c0.76-0.149,2.704-1.582,3.865-2.479c0.508-0.392,0.588-1.122,0.184-1.619l-0.232-0.286
						c-0.648-0.796-0.437-1.985,0.453-2.5c0.37-0.214,0.681-0.405,0.782-0.499c1.627-1.509,2.807-3.482,3.709-5.497
						c0.771-1.723,1.318-3.547,1.626-5.41c0.485-2.93,0.379-5.956-0.37-8.834c3.3,3.83,9.217,5.829,14.277,5.66
						C304.599,120.889,302.934,118.393,301.535,116.313z"/>
					<g>
						<path style="fill:#101E33;" d="M305.439,133.778c0.538,0.466,1.353,0.409,1.821-0.126s0.411-1.348-0.127-1.814
							c-0.538-0.466-1.354-0.41-1.821,0.126C304.844,132.5,304.901,133.312,305.439,133.778z"/>
						<path style="fill:#101E33;" d="M294.494,138.12c0.538,0.466,1.354,0.409,1.822-0.127c0.468-0.536,0.411-1.348-0.127-1.814
							c-0.538-0.466-1.353-0.409-1.821,0.127C293.899,136.842,293.956,137.654,294.494,138.12z"/>
						<g>
							<path style="fill:#101E33;" d="M294.286,130.414c-2.264-1.003-7.09,1.046-8.07,3.261c-0.109,0.245,0.138,0.521,0.395,0.421
								c1.382-0.539,2.461-1.748,3.87-2.35c1.228-0.525,2.664-0.631,3.809-1.299C294.302,130.439,294.299,130.419,294.286,130.414
								L294.286,130.414z"/>
						</g>
						<g>
							<path style="fill:#101E33;" d="M301.242,128.339c0.745-0.512,1.356-1.137,2.203-1.497c0.719-0.305,1.558-0.256,2.223-0.64
								c0.244-0.141,0.151-0.488-0.059-0.6c-0.819-0.435-2.016,0.042-2.782,0.422c-0.851,0.423-1.69,1.029-2.055,1.93
								C300.657,128.242,300.977,128.52,301.242,128.339L301.242,128.339z"/>
						</g>
						
							<path style="fill:#FFAB8A;stroke:#EF714B;stroke-width:1.4295;stroke-linecap:round;stroke-linejoin:round;stroke-miterlimit:10;" d="
							M301.044,131.655c0.265,1.59,1.204,2.967,2.269,4.142c0.701,0.773,1.432,1.549,2.469,1.908
							c0.425,0.147,0.933,0.26,1.128,0.664c0.103,0.214,0.089,0.465,0.052,0.7c-0.136,0.858-0.556,1.669-1.18,2.276"/>
					</g>
					<g>
						
							<path style="fill:#FFAB8A;stroke:#EF714B;stroke-width:1.4295;stroke-linecap:round;stroke-linejoin:round;stroke-miterlimit:10;" d="
							M282.987,143.49c-0.309-0.332-0.633-0.648-0.979-0.939c-1.05-0.886-2.34-1.538-3.581-1.517
							c-1.241,0.021-2.378,0.84-2.51,2.088c-0.123,1.164,0.595,2.389,1.396,3.398c2.091,2.633,5,4.619,8.052,5.497
							c0.76,0.219,1.594,0.363,2.209,0.007c0.615-0.356,0.795-1.407,0.162-1.95"/>
						
							<path style="fill:#FFAB8A;stroke:#EF714B;stroke-width:1.4295;stroke-linecap:round;stroke-linejoin:round;stroke-miterlimit:10;" d="
							M279.344,146.562c-0.265-0.357-0.535-0.725-0.648-1.153c-0.113-0.429-0.032-0.939,0.312-1.22
							c0.348-0.284,0.873-0.258,1.275-0.055c1.428,0.718,2.298,1.873,3.522,2.852c-0.327,0.054-0.715,0.177-0.848,0.52
							c-0.092,0.237-0.014,0.51,0.12,0.725c0.567,0.911,1.582,0.729,2.418,0.391"/>
					</g>
				</g>
			</g>
		</g>
	</g>
</g>
</svg>
